G04*
G04 #@! TF.GenerationSoftware,Altium Limited,Altium Designer,19.1.5 (86)*
G04*
G04 Layer_Color=65535*
%FSLAX25Y25*%
%MOIN*%
G70*
G01*
G75*
%ADD10C,0.00394*%
%ADD11C,0.00787*%
%ADD12C,0.00984*%
%ADD13C,0.01575*%
%ADD14C,0.01000*%
%ADD15C,0.00500*%
D10*
X391512Y461123D02*
X391153Y462060D01*
X390762Y462986D01*
X390341Y463897D01*
X389890Y464794D01*
X389409Y465675D01*
X388898Y466540D01*
X388359Y467387D01*
X387792Y468216D01*
X387198Y469025D01*
X386577Y469814D01*
X385929Y470582D01*
X385257Y471327D01*
X384559Y472050D01*
X383839Y472749D01*
X383095Y473423D01*
X382328Y474072D01*
X381541Y474695D01*
X380733Y475292D01*
X379906Y475861D01*
X379060Y476402D01*
X378197Y476914D01*
X377316Y477398D01*
X376420Y477851D01*
X375510Y478274D01*
X374586Y478667D01*
X373649Y479028D01*
X372701Y479358D01*
X371742Y479656D01*
X370773Y479922D01*
X369796Y480155D01*
X368813Y480355D01*
X367823Y480522D01*
X366827Y480657D01*
X365828Y480757D01*
X364826Y480824D01*
X363823Y480858D01*
X362819D01*
X361815Y480824D01*
X360813Y480757D01*
X359814Y480657D01*
X358819Y480522D01*
X357829Y480355D01*
X356845Y480155D01*
X355869Y479922D01*
X354900Y479656D01*
X353941Y479358D01*
X352993Y479028D01*
X352056Y478667D01*
X351132Y478274D01*
X350221Y477851D01*
X349325Y477398D01*
X348445Y476914D01*
X347582Y476402D01*
X346736Y475861D01*
X345908Y475292D01*
X345101Y474695D01*
X344313Y474072D01*
X343547Y473423D01*
X342803Y472749D01*
X342082Y472050D01*
X341385Y471327D01*
X340713Y470582D01*
X340065Y469814D01*
X339444Y469025D01*
X338850Y468216D01*
X338283Y467387D01*
X337744Y466540D01*
X337233Y465675D01*
X336752Y464794D01*
X336301Y463897D01*
X335880Y462986D01*
X335489Y462060D01*
X335130Y461123D01*
X335132Y440602D02*
X335491Y439664D01*
X335882Y438739D01*
X336303Y437827D01*
X336754Y436930D01*
X337235Y436049D01*
X337745Y435184D01*
X338284Y434337D01*
X338851Y433508D01*
X339446Y432699D01*
X340067Y431910D01*
X340715Y431143D01*
X341387Y430397D01*
X342084Y429674D01*
X342805Y428975D01*
X343549Y428301D01*
X344315Y427652D01*
X345103Y427029D01*
X345911Y426433D01*
X346738Y425864D01*
X347584Y425322D01*
X348447Y424810D01*
X349327Y424327D01*
X350223Y423873D01*
X351134Y423450D01*
X352058Y423058D01*
X352995Y422696D01*
X353943Y422366D01*
X354902Y422068D01*
X355870Y421803D01*
X356847Y421569D01*
X357831Y421369D01*
X358821Y421202D01*
X359816Y421068D01*
X360815Y420967D01*
X361817Y420900D01*
X362821Y420866D01*
X363825D01*
X364828Y420900D01*
X365830Y420967D01*
X366829Y421068D01*
X367824Y421202D01*
X368814Y421369D01*
X369798Y421569D01*
X370775Y421803D01*
X371743Y422068D01*
X372702Y422366D01*
X373651Y422696D01*
X374588Y423057D01*
X375512Y423450D01*
X376422Y423873D01*
X377318Y424327D01*
X378198Y424810D01*
X379062Y425322D01*
X379908Y425864D01*
X380735Y426433D01*
X381543Y427029D01*
X382330Y427652D01*
X383097Y428301D01*
X383840Y428975D01*
X384561Y429674D01*
X385259Y430397D01*
X385931Y431143D01*
X386578Y431910D01*
X387200Y432699D01*
X387794Y433508D01*
X388361Y434337D01*
X388900Y435184D01*
X389410Y436049D01*
X389892Y436930D01*
X390343Y437827D01*
X390764Y438739D01*
X391155Y439664D01*
X391514Y440602D01*
X424354Y413067D02*
Y430783D01*
X386354Y413067D02*
X424354D01*
X386354D02*
Y430783D01*
X424354D01*
Y413067D02*
Y427634D01*
X386354D02*
X424354D01*
X386354Y413067D02*
Y427634D01*
D11*
X507479Y448818D02*
X506692D01*
X507479D01*
X433898Y335177D02*
X432941Y334987D01*
X432130Y334445D01*
X431588Y333634D01*
X431398Y332677D01*
X431588Y331720D01*
X432130Y330909D01*
X432941Y330367D01*
X433898Y330177D01*
X527677Y335177D02*
X526721Y334987D01*
X525909Y334445D01*
X525367Y333634D01*
X525177Y332677D01*
X525367Y331720D01*
X525909Y330909D01*
X526721Y330367D01*
X527677Y330177D01*
X520039Y473740D02*
Y483740D01*
X540039D01*
Y473740D02*
Y483740D01*
X520039Y473740D02*
X540039D01*
X414960Y455980D02*
X421949D01*
X431070Y445744D02*
Y455980D01*
X414960Y445744D02*
Y455980D01*
Y445744D02*
X435433D01*
Y455980D01*
X421949D02*
X435433D01*
X536063Y409055D02*
X557874D01*
X536063Y400394D02*
Y409055D01*
Y400394D02*
X539213Y397244D01*
X557874D01*
Y409055D01*
X559724Y357598D02*
Y389528D01*
X541063D02*
X559724D01*
X537913Y386378D02*
X541063Y389528D01*
X537913Y357598D02*
Y386378D01*
Y357598D02*
X559724D01*
X461811Y430193D02*
X495079D01*
Y445154D01*
Y456571D02*
Y471531D01*
X461811D02*
X495079D01*
X453740Y438264D02*
Y445154D01*
Y438264D02*
X461811Y430193D01*
X453740Y463461D02*
X461811Y471531D01*
X453740Y456571D02*
Y463461D01*
X557185Y432874D02*
Y433268D01*
X552264Y432874D02*
Y433268D01*
X528150Y465059D02*
X528543D01*
X528150Y460138D02*
X528543D01*
X519684Y410138D02*
X520078D01*
X519684Y415059D02*
X520078D01*
X512007Y355314D02*
Y381692D01*
X524211Y355314D02*
Y381692D01*
X512007D02*
X524211D01*
X512007Y355314D02*
X524211D01*
X435630Y379701D02*
X450984D01*
X435630Y367693D02*
X450984D01*
X423032Y389150D02*
X423425D01*
X423032Y384228D02*
X423425D01*
X383760Y397909D02*
Y398303D01*
X388681Y397909D02*
Y398303D01*
X363189Y387673D02*
Y402142D01*
Y387673D02*
X366929D01*
X376378D02*
X380118D01*
Y402142D01*
X365650Y404602D02*
X366929D01*
X363189Y402142D02*
X365650Y404602D01*
X377658D02*
X380118Y402142D01*
X376378Y404602D02*
X377658D01*
X324213Y381768D02*
Y408638D01*
Y381768D02*
X336221D01*
X345669D02*
X357677D01*
Y408638D01*
X330807Y415232D02*
X336221D01*
X324213Y408638D02*
X330807Y415232D01*
X351083D02*
X357677Y408638D01*
X345669Y415232D02*
X351083D01*
X401575Y390724D02*
Y410409D01*
X409449Y390724D02*
Y410409D01*
X401575D02*
X409449D01*
X401575Y390724D02*
X409449D01*
X426575Y405784D02*
Y416413D01*
X437992Y405784D02*
Y416413D01*
X517520Y384547D02*
X517913D01*
X517520Y389469D02*
X517913D01*
X498917Y363189D02*
Y363583D01*
X493996Y363189D02*
Y363583D01*
X353898Y339429D02*
X433898D01*
X353898Y325925D02*
Y339429D01*
Y325925D02*
X433898D01*
Y330177D01*
Y335177D02*
Y339429D01*
X447677D02*
X527677D01*
X447677Y325925D02*
Y339429D01*
Y325925D02*
X527677D01*
Y330177D01*
Y335177D02*
Y339429D01*
D12*
X507086Y381692D02*
X506347Y382118D01*
Y381266D01*
X507086Y381692D01*
X396752Y411413D02*
X396014Y411840D01*
Y410987D01*
X396752Y411413D01*
D13*
X405512Y407260D02*
X404968Y408009D01*
X404087Y407723D01*
Y406797D01*
X404968Y406511D01*
X405512Y407260D01*
D14*
X396994Y291173D02*
Y297463D01*
X383604Y291173D02*
X396994D01*
X383604Y275373D02*
Y291173D01*
X381404Y275373D02*
X383604D01*
X381404Y266273D02*
Y275373D01*
X381471Y266273D02*
X491774D01*
Y275373D01*
X489574D02*
X491774D01*
X489574D02*
Y291173D01*
X476184D02*
X489574D01*
X476184D02*
Y297463D01*
X397219D02*
X476184D01*
X386532Y310700D02*
X384532D01*
X385532D01*
Y305702D01*
X384532Y304702D01*
X383533D01*
X382533Y305702D01*
X388531Y304702D02*
X390530D01*
X389531D01*
Y310700D01*
X388531Y309700D01*
X524803Y466929D02*
Y471746D01*
X527212D01*
X528015Y470944D01*
Y469338D01*
X527212Y468535D01*
X524803D01*
X529621Y466929D02*
X531226D01*
X530423D01*
Y471746D01*
X529621Y470944D01*
X325197Y465841D02*
Y459842D01*
X329196D01*
X331195D02*
X333194D01*
X332195D01*
Y465841D01*
X331195Y464841D01*
X412205Y364660D02*
Y360661D01*
X414204Y358661D01*
X416203Y360661D01*
Y364660D01*
X418203Y358661D02*
Y364660D01*
X421202D01*
X422201Y363660D01*
Y361660D01*
X421202Y360661D01*
X418203D01*
X420202D02*
X422201Y358661D01*
X424201D02*
X426200D01*
X425201D01*
Y364660D01*
X424201Y363660D01*
X504724Y460210D02*
Y455212D01*
X505724Y454212D01*
X507723D01*
X508723Y455212D01*
Y460210D01*
X514721Y454212D02*
X510722D01*
X514721Y458211D01*
Y459210D01*
X513722Y460210D01*
X511722D01*
X510722Y459210D01*
X550849Y395762D02*
X549244D01*
X550046D01*
Y391748D01*
X549244Y390945D01*
X548441D01*
X547638Y391748D01*
X554864Y390945D02*
Y395762D01*
X552455Y393354D01*
X555667D01*
X543564Y355604D02*
X541565D01*
X542565D01*
Y350606D01*
X541565Y349606D01*
X540565D01*
X539566Y350606D01*
X545564Y354605D02*
X546563Y355604D01*
X548563D01*
X549562Y354605D01*
Y353605D01*
X548563Y352605D01*
X547563D01*
X548563D01*
X549562Y351606D01*
Y350606D01*
X548563Y349606D01*
X546563D01*
X545564Y350606D01*
X550062Y421534D02*
X549062Y422534D01*
X547063D01*
X546063Y421534D01*
Y417535D01*
X547063Y416536D01*
X549062D01*
X550062Y417535D01*
X552061Y416536D02*
X554060D01*
X553061D01*
Y422534D01*
X552061Y421534D01*
X557059D02*
X558059Y422534D01*
X560058D01*
X561058Y421534D01*
Y417535D01*
X560058Y416536D01*
X558059D01*
X557059Y417535D01*
Y421534D01*
X504194Y415235D02*
X503195Y416234D01*
X501195D01*
X500196Y415235D01*
Y411236D01*
X501195Y410236D01*
X503195D01*
X504194Y411236D01*
X506194D02*
X507193Y410236D01*
X509193D01*
X510192Y411236D01*
Y415235D01*
X509193Y416234D01*
X507193D01*
X506194Y415235D01*
Y414235D01*
X507193Y413235D01*
X510192D01*
X540219Y464841D02*
X539220Y465841D01*
X537220D01*
X536221Y464841D01*
Y460842D01*
X537220Y459842D01*
X539220D01*
X540219Y460842D01*
X542218Y464841D02*
X543218Y465841D01*
X545218D01*
X546217Y464841D01*
Y463841D01*
X545218Y462842D01*
X546217Y461842D01*
Y460842D01*
X545218Y459842D01*
X543218D01*
X542218Y460842D01*
Y461842D01*
X543218Y462842D01*
X542218Y463841D01*
Y464841D01*
X543218Y462842D02*
X545218D01*
X534738Y402756D02*
X530739D01*
X528740Y400757D01*
X530739Y398757D01*
X534738D01*
X528740Y396758D02*
X534738D01*
Y393759D01*
X533739Y392759D01*
X531739D01*
X530739Y393759D01*
Y396758D01*
Y394759D02*
X528740Y392759D01*
Y386761D02*
Y390760D01*
X532739Y386761D01*
X533739D01*
X534738Y387761D01*
Y389760D01*
X533739Y390760D01*
X424502Y406761D02*
X420488D01*
X419685Y405958D01*
Y404353D01*
X420488Y403550D01*
X424502D01*
X419685Y401944D02*
Y400338D01*
Y401141D01*
X424502D01*
X423699Y401944D01*
X446850Y396457D02*
X440852D01*
Y399456D01*
X441852Y400455D01*
X443851D01*
X444851Y399456D01*
Y396457D01*
Y398456D02*
X446850Y400455D01*
X441852Y406454D02*
X440852Y405454D01*
Y403454D01*
X441852Y402455D01*
X442852D01*
X443851Y403454D01*
Y405454D01*
X444851Y406454D01*
X445851D01*
X446850Y405454D01*
Y403454D01*
X445851Y402455D01*
X440852Y412452D02*
Y408453D01*
X446850D01*
Y412452D01*
X443851Y408453D02*
Y410452D01*
X446850Y414451D02*
X440852D01*
X446850Y418450D01*
X440852D01*
X441852Y424448D02*
X440852Y423448D01*
Y421449D01*
X441852Y420449D01*
X442852D01*
X443851Y421449D01*
Y423448D01*
X444851Y424448D01*
X445851D01*
X446850Y423448D01*
Y421449D01*
X445851Y420449D01*
X440852Y430446D02*
Y426447D01*
X446850D01*
Y430446D01*
X443851Y426447D02*
Y428446D01*
X383465Y358268D02*
Y364266D01*
X386464D01*
X387463Y363266D01*
Y361267D01*
X386464Y360267D01*
X383465D01*
X385464D02*
X387463Y358268D01*
X392462D02*
Y364266D01*
X389463Y361267D01*
X393461D01*
X370618Y365748D02*
Y371746D01*
X373617D01*
X374617Y370746D01*
Y368747D01*
X373617Y367747D01*
X370618D01*
X372617D02*
X374617Y365748D01*
X376616Y370746D02*
X377616Y371746D01*
X379615D01*
X380615Y370746D01*
Y369747D01*
X379615Y368747D01*
X378615D01*
X379615D01*
X380615Y367747D01*
Y366748D01*
X379615Y365748D01*
X377616D01*
X376616Y366748D01*
X394488Y382283D02*
Y388281D01*
X397487D01*
X398487Y387282D01*
Y385282D01*
X397487Y384283D01*
X394488D01*
X396488D02*
X398487Y382283D01*
X404485D02*
X400486D01*
X404485Y386282D01*
Y387282D01*
X403485Y388281D01*
X401486D01*
X400486Y387282D01*
X440551Y382752D02*
Y388750D01*
X443550D01*
X444550Y387750D01*
Y385751D01*
X443550Y384751D01*
X440551D01*
X442551D02*
X444550Y382752D01*
X446549D02*
X448549D01*
X447549D01*
Y388750D01*
X446549Y387750D01*
X375259Y414067D02*
Y418065D01*
X374259Y419065D01*
X372259D01*
X371260Y418065D01*
Y414067D01*
X372259Y413067D01*
X374259D01*
X373259Y415066D02*
X375259Y413067D01*
X374259D02*
X375259Y414067D01*
X377258Y413067D02*
X379257D01*
X378258D01*
Y419065D01*
X377258Y418065D01*
X395299Y464986D02*
Y458987D01*
X398298D01*
X399298Y459987D01*
Y463986D01*
X398298Y464986D01*
X395299D01*
X401297Y458987D02*
X403297D01*
X402297D01*
Y464986D01*
X401297Y463986D01*
X385101Y410510D02*
X384101Y411510D01*
X382102D01*
X381102Y410510D01*
Y406511D01*
X382102Y405512D01*
X384101D01*
X385101Y406511D01*
X387100Y411510D02*
X391099D01*
Y410510D01*
X387100Y406511D01*
Y405512D01*
X362660Y416491D02*
X361660Y417490D01*
X359661D01*
X358661Y416491D01*
Y412492D01*
X359661Y411492D01*
X361660D01*
X362660Y412492D01*
X367658Y411492D02*
Y417490D01*
X364660Y414491D01*
X368658D01*
X419353Y377833D02*
X418353Y378833D01*
X416354D01*
X415354Y377833D01*
Y373834D01*
X416354Y372835D01*
X418353D01*
X419353Y373834D01*
X421352Y377833D02*
X422352Y378833D01*
X424351D01*
X425351Y377833D01*
Y376833D01*
X424351Y375834D01*
X423352D01*
X424351D01*
X425351Y374834D01*
Y373834D01*
X424351Y372835D01*
X422352D01*
X421352Y373834D01*
X488251Y427439D02*
X487251Y428439D01*
X485252D01*
X484252Y427439D01*
Y423441D01*
X485252Y422441D01*
X487251D01*
X488251Y423441D01*
X494249Y422441D02*
X490250D01*
X494249Y426440D01*
Y427439D01*
X493249Y428439D01*
X491250D01*
X490250Y427439D01*
X331558Y423502D02*
X330558Y424502D01*
X328559D01*
X327559Y423502D01*
Y419504D01*
X328559Y418504D01*
X330558D01*
X331558Y419504D01*
X333557Y418504D02*
X335557D01*
X334557D01*
Y424502D01*
X333557Y423502D01*
X485947Y362266D02*
X484947Y361267D01*
Y359267D01*
X485947Y358268D01*
X489945D01*
X490945Y359267D01*
Y361267D01*
X489945Y362266D01*
X484947Y368265D02*
Y364266D01*
X487946D01*
X486946Y366265D01*
Y367265D01*
X487946Y368265D01*
X489945D01*
X490945Y367265D01*
Y365265D01*
X489945Y364266D01*
X503605Y389250D02*
X502605Y390250D01*
X500606D01*
X499606Y389250D01*
Y385252D01*
X500606Y384252D01*
X502605D01*
X503605Y385252D01*
X509603Y390250D02*
X507604Y389250D01*
X505604Y387251D01*
Y385252D01*
X506604Y384252D01*
X508603D01*
X509603Y385252D01*
Y386251D01*
X508603Y387251D01*
X505604D01*
X474078Y484132D02*
X473078Y485132D01*
X471078D01*
X470079Y484132D01*
Y483133D01*
X471078Y482133D01*
X473078D01*
X474078Y481133D01*
Y480133D01*
X473078Y479134D01*
X471078D01*
X470079Y480133D01*
X476077Y479134D02*
X478076D01*
X477076D01*
Y485132D01*
X476077Y484132D01*
D15*
X514959Y450433D02*
Y451574D01*
X516101D01*
X514959Y424015D02*
X516101D01*
X514959D02*
Y425157D01*
X541377Y451574D02*
X542518D01*
Y450433D02*
Y451574D01*
Y424015D02*
Y425157D01*
X541377Y424015D02*
X542518D01*
M02*
