M48
;Layer_Color=9474304
;FILE_FORMAT=2:5
INCH,TZ
;TYPE=PLATED
T1F00S00C0.01181
T2F00S00C0.02362
T3F00S00C0.02756
T4F00S00C0.02953
T5F00S00C0.03346
T6F00S00C0.03543
T7F00S00C0.03937
T8F00S00C0.04724
T9F00S00C0.08268
%
T01
X482283Y285433
X466929Y307480
X456284Y301560
X452344Y301557
X428731Y302353
X417717Y303150
X397244Y287008
X401154Y281496
X364252Y286457
Y306445
X338976Y296063
X320657Y398000
X340158Y461811
X415000Y396000
X423000Y401000
X456000
X457874Y387795
X462730Y379000
X454500Y377500
X492000Y369000
X500894Y369512
X517894Y376012
X527894Y355287
X530500Y340760
T02
X334252Y316142
X344252
X354252
X364252
X374252
X384252
X394252
X404252
X433465
X443465
X453465
X463465
Y346063
X453465
X443465
X433465
X404252
X394252
X384252
X374252
X364252
X354252
X344252
X334252
X330500Y374500
X320657
X340342
Y409933
X330500
X320657
X505657Y420933
X515500
X525343
Y385500
X515500
X505657
X503465Y346063
X493465
X483465
X473465
Y316142
X483465
X493465
X503465
T03
X361000Y379500
Y389342
X472500Y388342
Y378500
T04
X516894Y356512
Y361512
Y366512
T05
X355000Y399500
X395000
X392500Y375500
X432500
T06
X516500Y448500
X526500
T07
X490000Y473000
X502000
X514000
T08
X354909Y422500
X396091
T09
X530500Y275996
X319921
X530709Y479528
X320079
M30
