G04*
G04 #@! TF.GenerationSoftware,Altium Limited,Altium Designer,19.1.5 (86)*
G04*
G04 Layer_Color=8388736*
%FSLAX25Y25*%
%MOIN*%
G70*
G01*
G75*
%ADD16R,0.02760X0.07500*%
%ADD17R,0.09100X0.10200*%
%ADD18R,0.12217X0.12217*%
%ADD19R,0.14580X0.09855*%
%ADD20R,0.06509X0.05328*%
%ADD21R,0.06587X0.01902*%
%ADD22R,0.01902X0.06587*%
%ADD23R,0.05328X0.06509*%
%ADD24R,0.09265X0.04737*%
%ADD25R,0.09265X0.13595*%
%ADD26R,0.05131X0.06115*%
%ADD27R,0.04934X0.06312*%
%ADD28R,0.05721X0.13595*%
%ADD29R,0.04343X0.05131*%
%ADD30R,0.04343X0.06312*%
%ADD31R,0.07887X0.12217*%
%ADD32R,0.07887X0.17532*%
%ADD33O,0.08280X0.03162*%
%ADD34R,0.13005X0.08280*%
%ADD35R,0.06706X0.06706*%
%ADD36C,0.06706*%
%ADD37C,0.08674*%
%ADD38C,0.07887*%
%ADD39R,0.07887X0.07887*%
%ADD40R,0.07887X0.07887*%
%ADD41O,0.08674X0.10249*%
%ADD42O,0.05524X0.10642*%
%ADD43R,0.05524X0.10642*%
%ADD44C,0.12611*%
D16*
X454331Y292913D02*
D03*
X450391D02*
D03*
X446451D02*
D03*
X442511D02*
D03*
X438571D02*
D03*
X418872D02*
D03*
X422812D02*
D03*
X426752D02*
D03*
X430692D02*
D03*
X434632D02*
D03*
X474004D02*
D03*
X470064D02*
D03*
X466124D02*
D03*
X462184D02*
D03*
X458244D02*
D03*
X414934D02*
D03*
X410994D02*
D03*
X407054D02*
D03*
X403114D02*
D03*
X399174D02*
D03*
D17*
X484224Y282913D02*
D03*
X388954D02*
D03*
D18*
X333071Y450862D02*
D03*
X393583D02*
D03*
D19*
X491240D02*
D03*
X457579D02*
D03*
D20*
X554724Y436614D02*
D03*
Y429528D02*
D03*
X386221Y394563D02*
D03*
Y401650D02*
D03*
X496457Y366929D02*
D03*
Y359843D02*
D03*
D21*
X512322Y448621D02*
D03*
Y446653D02*
D03*
Y444684D02*
D03*
Y442716D02*
D03*
Y440747D02*
D03*
Y438779D02*
D03*
Y436810D02*
D03*
Y434842D02*
D03*
Y432873D02*
D03*
Y430905D02*
D03*
Y428936D02*
D03*
Y426968D02*
D03*
X545156D02*
D03*
Y428936D02*
D03*
Y430905D02*
D03*
Y432873D02*
D03*
Y434842D02*
D03*
Y436810D02*
D03*
Y438779D02*
D03*
Y440747D02*
D03*
Y442716D02*
D03*
Y444684D02*
D03*
Y446653D02*
D03*
Y448621D02*
D03*
D22*
X517912Y421377D02*
D03*
X519881D02*
D03*
X521849D02*
D03*
X523818D02*
D03*
X525786D02*
D03*
X527755D02*
D03*
X529723D02*
D03*
X531692D02*
D03*
X533660D02*
D03*
X535629D02*
D03*
X537597D02*
D03*
X539566D02*
D03*
Y454212D02*
D03*
X537597D02*
D03*
X535629D02*
D03*
X533660D02*
D03*
X531692D02*
D03*
X529723D02*
D03*
X527755D02*
D03*
X525786D02*
D03*
X523818D02*
D03*
X521849D02*
D03*
X519881D02*
D03*
X517912D02*
D03*
D23*
X524803Y462598D02*
D03*
X531890D02*
D03*
X523424Y412598D02*
D03*
X516337D02*
D03*
X419685Y386689D02*
D03*
X426772D02*
D03*
X521260Y387008D02*
D03*
X514173D02*
D03*
D24*
X506593Y377558D02*
D03*
Y368503D02*
D03*
Y359448D02*
D03*
D25*
X529625Y368503D02*
D03*
D26*
X389567Y376453D02*
D03*
X382874D02*
D03*
Y384327D02*
D03*
X389567D02*
D03*
D27*
X397441Y361886D02*
D03*
X404921D02*
D03*
D28*
X431693Y373697D02*
D03*
X454921D02*
D03*
D29*
X408465Y382555D02*
D03*
Y368776D02*
D03*
D30*
X395472Y375665D02*
D03*
D31*
X371654Y388264D02*
D03*
Y404012D02*
D03*
D32*
X340945Y385114D02*
D03*
Y411886D02*
D03*
D33*
X396260Y408067D02*
D03*
Y403067D02*
D03*
Y398067D02*
D03*
Y393067D02*
D03*
X414764Y408067D02*
D03*
Y403067D02*
D03*
Y398067D02*
D03*
Y393067D02*
D03*
D34*
X432284Y400567D02*
D03*
Y421630D02*
D03*
D35*
X535039Y478740D02*
D03*
D36*
X525039D02*
D03*
D37*
X444882Y450862D02*
D03*
X405512D02*
D03*
X485055Y481102D02*
D03*
X497055D02*
D03*
X509055D02*
D03*
D38*
X551968Y403150D02*
D03*
X543819Y373622D02*
D03*
X553819Y383622D02*
D03*
Y373622D02*
D03*
X543819Y363622D02*
D03*
X553819D02*
D03*
D39*
X541968Y403150D02*
D03*
D40*
X543819Y383622D02*
D03*
D41*
X395354Y421728D02*
D03*
X405354D02*
D03*
X415354D02*
D03*
D42*
X358898Y317717D02*
D03*
X368898D02*
D03*
X378898D02*
D03*
X388898D02*
D03*
X398898D02*
D03*
X408898D02*
D03*
X418898D02*
D03*
X428898D02*
D03*
X358898Y347638D02*
D03*
X368898D02*
D03*
X378898D02*
D03*
X388898D02*
D03*
X398898D02*
D03*
X408898D02*
D03*
X418898D02*
D03*
X452677Y317717D02*
D03*
X462677D02*
D03*
X472677D02*
D03*
X482677D02*
D03*
X492677D02*
D03*
X502677D02*
D03*
X512677D02*
D03*
X522677D02*
D03*
X452677Y347638D02*
D03*
X462677D02*
D03*
X472677D02*
D03*
X482677D02*
D03*
X492677D02*
D03*
X502677D02*
D03*
X512677D02*
D03*
D43*
X428898D02*
D03*
X522677D02*
D03*
D44*
X555118Y275591D02*
D03*
X553937Y479921D02*
D03*
X319921Y275996D02*
D03*
X320079Y479528D02*
D03*
M02*
