G04*
G04 #@! TF.GenerationSoftware,Altium Limited,Altium Designer,18.1.7 (191)*
G04*
G04 Layer_Color=16711935*
%FSLAX25Y25*%
%MOIN*%
G70*
G01*
G75*
%ADD40O,0.05524X0.10642*%
%ADD41R,0.05524X0.10642*%
%ADD42C,0.06312*%
%ADD43C,0.08674*%
%ADD44R,0.08674X0.08674*%
%ADD45R,0.08674X0.04737*%
%ADD46O,0.08674X0.04737*%
%ADD47C,0.12611*%
%ADD48C,0.06706*%
%ADD49R,0.06706X0.06706*%
%ADD50C,0.05524*%
%ADD51C,0.03162*%
D40*
X433465Y316142D02*
D03*
X443465D02*
D03*
X453465D02*
D03*
X463465D02*
D03*
X473465D02*
D03*
X483465D02*
D03*
X493465D02*
D03*
X503465D02*
D03*
X433465Y346063D02*
D03*
X443465D02*
D03*
X453465D02*
D03*
X463465D02*
D03*
X473465D02*
D03*
X483465D02*
D03*
X493465D02*
D03*
X334252Y316142D02*
D03*
X344252D02*
D03*
X354252D02*
D03*
X364252D02*
D03*
X374252D02*
D03*
X384252D02*
D03*
X394252D02*
D03*
X404252D02*
D03*
X334252Y346063D02*
D03*
X344252D02*
D03*
X354252D02*
D03*
X364252D02*
D03*
X374252D02*
D03*
X384252D02*
D03*
X394252D02*
D03*
X340342Y409933D02*
D03*
X330500D02*
D03*
X320657D02*
D03*
X330500Y374500D02*
D03*
X340342D02*
D03*
X525343Y385500D02*
D03*
X515500D02*
D03*
X505657Y420933D02*
D03*
X515500D02*
D03*
X525343D02*
D03*
D41*
X503465Y346063D02*
D03*
X404252D02*
D03*
X320657Y374500D02*
D03*
X505657Y385500D02*
D03*
D42*
X432500Y375500D02*
D03*
X392500D02*
D03*
X395000Y399500D02*
D03*
X355000D02*
D03*
D43*
X396091Y422500D02*
D03*
X490000Y473000D02*
D03*
X502000D02*
D03*
X514000D02*
D03*
D44*
X354909Y422500D02*
D03*
D45*
X516894Y356512D02*
D03*
D46*
Y361512D02*
D03*
Y366512D02*
D03*
D47*
X530500Y275996D02*
D03*
X530709Y479528D02*
D03*
X319921Y275996D02*
D03*
X320079Y479528D02*
D03*
D48*
X516500Y448500D02*
D03*
D49*
X526500D02*
D03*
D50*
X361000Y389342D02*
D03*
Y379500D02*
D03*
X472500Y378500D02*
D03*
Y388342D02*
D03*
D51*
X340158Y461811D02*
D03*
X338976Y296063D02*
D03*
X457874Y387795D02*
D03*
X397244Y287008D02*
D03*
X527894Y355287D02*
D03*
X530500Y340760D02*
D03*
X401154Y281496D02*
D03*
X364252Y306445D02*
D03*
Y286457D02*
D03*
X417717Y303150D02*
D03*
X428731Y302353D02*
D03*
X466929Y307480D02*
D03*
X456284Y301560D02*
D03*
X452344Y301557D02*
D03*
X482283Y285433D02*
D03*
X462730Y379000D02*
D03*
X454500Y377500D02*
D03*
X517894Y376012D02*
D03*
X456000Y401000D02*
D03*
X423000D02*
D03*
X415000Y396000D02*
D03*
X320657Y398000D02*
D03*
X492000Y369000D02*
D03*
X500894Y369512D02*
D03*
M02*
