G04*
G04 #@! TF.GenerationSoftware,Altium Limited,Altium Designer,18.1.7 (191)*
G04*
G04 Layer_Color=65535*
%FSLAX25Y25*%
%MOIN*%
G70*
G01*
G75*
%ADD10C,0.00787*%
%ADD11C,0.01575*%
%ADD12C,0.00984*%
%ADD13C,0.01000*%
%ADD14C,0.00660*%
%ADD15R,0.03150X0.11024*%
G36*
X329950Y443958D02*
X330150Y443908D01*
X330375Y443833D01*
X330600Y443733D01*
X330850Y443608D01*
X331100Y443408D01*
X331125Y443383D01*
X331175Y443333D01*
X331250Y443258D01*
X331325Y443183D01*
X331350Y443158D01*
X331375Y443108D01*
X331500Y442933D01*
X339875Y428408D01*
X339900Y428383D01*
X339950Y428283D01*
X340000Y428133D01*
X340075Y427933D01*
X340125Y427708D01*
X340150Y427458D01*
X340175Y427158D01*
X340125Y426858D01*
Y426833D01*
X340100Y426783D01*
X340075Y426683D01*
X340025Y426558D01*
Y426533D01*
X340000Y426483D01*
X339975Y426383D01*
X339900Y426258D01*
X339875Y426233D01*
X339825Y426133D01*
X339725Y426008D01*
X339600Y425858D01*
X339425Y425708D01*
X339225Y425533D01*
X338975Y425408D01*
X338700Y425283D01*
X338675D01*
X338575Y425258D01*
X338475Y425233D01*
X338400Y425208D01*
X338325D01*
X338200Y425183D01*
X321150D01*
X321000Y425208D01*
X320800Y425258D01*
X320550Y425308D01*
X320300Y425408D01*
X320050Y425558D01*
X319800Y425758D01*
X319775Y425783D01*
X319725Y425833D01*
X319600Y425983D01*
X319575Y426008D01*
X319525Y426058D01*
X319475Y426158D01*
X319425Y426258D01*
X319400D01*
X319375Y426283D01*
X319350Y426383D01*
X319275Y426533D01*
X319225Y426708D01*
X319175Y426933D01*
X319125Y427183D01*
Y427458D01*
X319175Y427758D01*
Y427783D01*
X319200Y427883D01*
X319225Y427983D01*
X319250Y428058D01*
Y428083D01*
X319275Y428133D01*
X319325Y428208D01*
X319375Y428333D01*
X319400Y428358D01*
Y428383D01*
X327775Y442883D01*
Y442908D01*
X327825Y442958D01*
X327875Y443033D01*
X327950Y443133D01*
X328150Y443358D01*
X328425Y443583D01*
X328400D01*
X328450Y443608D01*
X328500Y443658D01*
X328575Y443708D01*
X328600Y443733D01*
X328675Y443758D01*
X328775Y443808D01*
X328900Y443858D01*
X329050Y443908D01*
X329250Y443933D01*
X329450Y443983D01*
X329800D01*
X329950Y443958D01*
D02*
G37*
G36*
X320281Y423558D02*
X320331Y423551D01*
X320388Y423539D01*
X320450Y423526D01*
X320519Y423508D01*
X320587Y423483D01*
X320662Y423451D01*
X320738Y423414D01*
X320813Y423370D01*
X320887Y423314D01*
X320963Y423251D01*
X321031Y423183D01*
X321094Y423101D01*
X321100Y423095D01*
X321106Y423083D01*
X321125Y423051D01*
X321144Y423020D01*
X321169Y422970D01*
X321200Y422914D01*
X321231Y422851D01*
X321263Y422776D01*
X321287Y422689D01*
X321319Y422595D01*
X321350Y422495D01*
X321375Y422383D01*
X321394Y422264D01*
X321412Y422139D01*
X321419Y422008D01*
X321425Y421864D01*
Y421851D01*
Y421826D01*
Y421783D01*
X321419Y421726D01*
X321412Y421651D01*
X321406Y421570D01*
X321394Y421476D01*
X321375Y421376D01*
X321325Y421164D01*
X321294Y421051D01*
X321256Y420939D01*
X321206Y420826D01*
X321150Y420714D01*
X321088Y420614D01*
X321019Y420514D01*
X321012Y420508D01*
X321000Y420495D01*
X320975Y420470D01*
X320944Y420439D01*
X320906Y420395D01*
X320856Y420358D01*
X320800Y420308D01*
X320738Y420264D01*
X320669Y420220D01*
X320587Y420170D01*
X320506Y420133D01*
X320412Y420095D01*
X320319Y420058D01*
X320219Y420033D01*
X320106Y420020D01*
X319994Y420014D01*
X319950D01*
X319900Y420020D01*
X319844D01*
X319769Y420026D01*
X319694Y420039D01*
X319544Y420070D01*
X319537D01*
X319513Y420083D01*
X319475Y420095D01*
X319425Y420114D01*
X319362Y420139D01*
X319294Y420170D01*
X319150Y420245D01*
Y418833D01*
X318581D01*
Y423470D01*
X319150D01*
Y423114D01*
X319163Y423120D01*
X319187Y423145D01*
X319231Y423183D01*
X319287Y423226D01*
X319356Y423276D01*
X319438Y423326D01*
X319525Y423383D01*
X319619Y423433D01*
X319631Y423439D01*
X319662Y423451D01*
X319719Y423476D01*
X319788Y423501D01*
X319875Y423520D01*
X319969Y423545D01*
X320075Y423558D01*
X320187Y423564D01*
X320244D01*
X320281Y423558D01*
D02*
G37*
G36*
X344844Y420083D02*
X344194D01*
X342644Y424601D01*
X343281Y424601D01*
X344531Y420851D01*
X345781Y424601D01*
X346400D01*
X344844Y420083D01*
D02*
G37*
G36*
X317762Y421776D02*
Y421770D01*
Y421758D01*
Y421733D01*
Y421695D01*
Y421658D01*
X317756Y421608D01*
X317750Y421501D01*
X317738Y421376D01*
X317719Y421239D01*
X317694Y421101D01*
X317663Y420970D01*
Y420964D01*
X317656Y420958D01*
X317650Y420939D01*
X317644Y420914D01*
X317619Y420851D01*
X317587Y420770D01*
X317544Y420683D01*
X317481Y420589D01*
X317412Y420495D01*
X317331Y420401D01*
X317319Y420395D01*
X317294Y420370D01*
X317250Y420333D01*
X317188Y420283D01*
X317112Y420233D01*
X317025Y420183D01*
X316931Y420133D01*
X316825Y420089D01*
X316812Y420083D01*
X316775Y420076D01*
X316712Y420058D01*
X316631Y420039D01*
X316531Y420020D01*
X316412Y420008D01*
X316275Y419995D01*
X316125Y419989D01*
X316056D01*
X316025Y419995D01*
X315987D01*
X315894Y420001D01*
X315781Y420014D01*
X315669Y420033D01*
X315550Y420058D01*
X315431Y420089D01*
X315425D01*
X315419Y420095D01*
X315381Y420108D01*
X315325Y420133D01*
X315256Y420170D01*
X315181Y420214D01*
X315094Y420264D01*
X315006Y420326D01*
X314925Y420401D01*
X314913Y420414D01*
X314887Y420445D01*
X314844Y420495D01*
X314800Y420564D01*
X314744Y420645D01*
X314687Y420739D01*
X314637Y420845D01*
X314594Y420964D01*
Y420970D01*
X314587Y420976D01*
Y420995D01*
X314581Y421026D01*
X314575Y421058D01*
X314563Y421095D01*
X314550Y421189D01*
X314531Y421308D01*
X314512Y421445D01*
X314506Y421601D01*
X314500Y421776D01*
Y424601D01*
X315100D01*
Y421783D01*
Y421776D01*
Y421770D01*
Y421733D01*
Y421670D01*
X315106Y421601D01*
Y421520D01*
X315119Y421433D01*
X315125Y421339D01*
X315138Y421258D01*
Y421251D01*
X315144Y421220D01*
X315156Y421183D01*
X315169Y421133D01*
X315194Y421070D01*
X315219Y421008D01*
X315256Y420939D01*
X315294Y420876D01*
X315300Y420870D01*
X315319Y420845D01*
X315344Y420814D01*
X315381Y420776D01*
X315425Y420733D01*
X315481Y420683D01*
X315544Y420639D01*
X315619Y420601D01*
X315631Y420595D01*
X315656Y420589D01*
X315700Y420570D01*
X315762Y420558D01*
X315831Y420539D01*
X315919Y420520D01*
X316019Y420514D01*
X316125Y420508D01*
X316175D01*
X316225Y420514D01*
X316294Y420520D01*
X316369Y420533D01*
X316456Y420545D01*
X316544Y420570D01*
X316625Y420601D01*
X316637Y420608D01*
X316663Y420620D01*
X316700Y420639D01*
X316750Y420670D01*
X316806Y420708D01*
X316863Y420758D01*
X316913Y420814D01*
X316963Y420876D01*
X316969Y420883D01*
X316981Y420908D01*
X317000Y420939D01*
X317025Y420989D01*
X317050Y421045D01*
X317075Y421108D01*
X317100Y421176D01*
X317119Y421251D01*
Y421264D01*
X317125Y421289D01*
X317131Y421333D01*
X317144Y421395D01*
X317150Y421470D01*
X317156Y421558D01*
X317162Y421658D01*
Y421770D01*
Y424601D01*
X317762D01*
Y421776D01*
D02*
G37*
G36*
X334175Y424689D02*
X334225Y424683D01*
X334288Y424676D01*
X334356Y424670D01*
X334431Y424651D01*
X334588Y424614D01*
X334750Y424551D01*
X334831Y424514D01*
X334912Y424470D01*
X334987Y424420D01*
X335056Y424358D01*
X335063Y424351D01*
X335075Y424345D01*
X335087Y424320D01*
X335113Y424295D01*
X335138Y424264D01*
X335169Y424220D01*
X335206Y424170D01*
X335238Y424120D01*
X335269Y424058D01*
X335306Y423989D01*
X335337Y423914D01*
X335363Y423833D01*
X335387Y423745D01*
X335406Y423651D01*
X335413Y423551D01*
X335419Y423445D01*
Y423433D01*
Y423401D01*
Y423351D01*
X335413Y423289D01*
X335406Y423214D01*
X335394Y423126D01*
X335356Y422958D01*
Y422945D01*
X335344Y422920D01*
X335331Y422876D01*
X335313Y422820D01*
X335287Y422758D01*
X335256Y422689D01*
X335181Y422545D01*
X335175Y422539D01*
X335162Y422514D01*
X335138Y422470D01*
X335106Y422420D01*
X335069Y422364D01*
X335019Y422295D01*
X334912Y422151D01*
X334906Y422145D01*
X334888Y422120D01*
X334856Y422083D01*
X334812Y422033D01*
X334763Y421976D01*
X334706Y421908D01*
X334581Y421770D01*
Y421764D01*
X334569Y421758D01*
X334550Y421739D01*
X334531Y421714D01*
X334475Y421651D01*
X334394Y421570D01*
X334300Y421476D01*
X334194Y421364D01*
X334069Y421251D01*
X333944Y421126D01*
X333938Y421120D01*
X333931Y421114D01*
X333912Y421095D01*
X333888Y421070D01*
X333825Y421014D01*
X333744Y420939D01*
X333650Y420851D01*
X333556Y420764D01*
X333469Y420683D01*
X333381Y420601D01*
X335606D01*
Y420083D01*
X332819D01*
Y420714D01*
X332825Y420720D01*
X332831Y420726D01*
X332869Y420764D01*
X332925Y420820D01*
X333000Y420889D01*
X333087Y420970D01*
X333181Y421064D01*
X333381Y421258D01*
X333387Y421264D01*
X333394Y421270D01*
X333425Y421301D01*
X333481Y421358D01*
X333550Y421426D01*
X333625Y421508D01*
X333719Y421601D01*
X333812Y421701D01*
X333906Y421808D01*
X333912Y421814D01*
X333931Y421833D01*
X333956Y421864D01*
X333987Y421901D01*
X334031Y421951D01*
X334081Y422008D01*
X334131Y422070D01*
X334188Y422133D01*
X334300Y422276D01*
X334419Y422433D01*
X334525Y422576D01*
X334569Y422651D01*
X334606Y422714D01*
Y422720D01*
X334612Y422733D01*
X334625Y422745D01*
X334637Y422776D01*
X334669Y422839D01*
X334706Y422933D01*
X334737Y423039D01*
X334769Y423158D01*
X334794Y423289D01*
X334800Y423420D01*
Y423426D01*
Y423451D01*
Y423489D01*
X334794Y423533D01*
X334788Y423589D01*
X334775Y423639D01*
X334737Y423751D01*
Y423758D01*
X334725Y423776D01*
X334713Y423801D01*
X334694Y423833D01*
X334644Y423914D01*
X334575Y423989D01*
X334569Y423995D01*
X334556Y424001D01*
X334531Y424020D01*
X334506Y424039D01*
X334469Y424064D01*
X334425Y424089D01*
X334325Y424126D01*
X334319D01*
X334300Y424133D01*
X334275Y424145D01*
X334238Y424151D01*
X334194Y424164D01*
X334144Y424170D01*
X334025Y424176D01*
X333962D01*
X333925Y424170D01*
X333875Y424164D01*
X333819Y424158D01*
X333694Y424133D01*
X333687D01*
X333669Y424126D01*
X333637Y424114D01*
X333594Y424101D01*
X333544Y424089D01*
X333494Y424070D01*
X333381Y424026D01*
X333375D01*
X333356Y424020D01*
X333331Y424008D01*
X333300Y423995D01*
X333219Y423951D01*
X333131Y423901D01*
X333125D01*
X333113Y423889D01*
X333094Y423876D01*
X333069Y423858D01*
X333006Y423820D01*
X332944Y423776D01*
X332912D01*
Y424420D01*
X332919Y424426D01*
X332950Y424439D01*
X332987Y424458D01*
X333050Y424476D01*
X333119Y424508D01*
X333212Y424539D01*
X333313Y424570D01*
X333431Y424601D01*
X333437D01*
X333444Y424608D01*
X333463D01*
X333488Y424614D01*
X333556Y424633D01*
X333637Y424651D01*
X333737Y424664D01*
X333844Y424683D01*
X333956Y424689D01*
X334069Y424695D01*
X334131D01*
X334175Y424689D01*
D02*
G37*
G36*
X327175Y424070D02*
X325656D01*
Y420083D01*
X325056D01*
Y424070D01*
X323537D01*
Y424601D01*
X327175D01*
Y424070D01*
D02*
G37*
G36*
X341038Y424689D02*
X341094D01*
X341150Y424676D01*
X341225Y424664D01*
X341300Y424645D01*
X341388Y424620D01*
X341475Y424589D01*
X341563Y424551D01*
X341656Y424501D01*
X341744Y424445D01*
X341831Y424383D01*
X341913Y424301D01*
X341994Y424214D01*
X342062Y424108D01*
X342069Y424101D01*
X342075Y424083D01*
X342094Y424045D01*
X342119Y423995D01*
X342144Y423933D01*
X342175Y423858D01*
X342206Y423770D01*
X342237Y423664D01*
X342269Y423551D01*
X342300Y423420D01*
X342331Y423270D01*
X342356Y423114D01*
X342381Y422939D01*
X342400Y422751D01*
X342406Y422551D01*
X342412Y422339D01*
Y422333D01*
Y422326D01*
Y422308D01*
Y422289D01*
Y422226D01*
X342406Y422139D01*
X342400Y422039D01*
X342394Y421926D01*
X342381Y421801D01*
X342369Y421664D01*
X342350Y421520D01*
X342325Y421370D01*
X342300Y421220D01*
X342263Y421076D01*
X342219Y420933D01*
X342175Y420795D01*
X342119Y420670D01*
X342056Y420558D01*
X342050Y420551D01*
X342038Y420533D01*
X342019Y420508D01*
X341987Y420470D01*
X341950Y420426D01*
X341906Y420376D01*
X341850Y420326D01*
X341788Y420276D01*
X341712Y420220D01*
X341637Y420170D01*
X341544Y420120D01*
X341450Y420076D01*
X341344Y420039D01*
X341225Y420014D01*
X341100Y419995D01*
X340969Y419989D01*
X340937D01*
X340900Y419995D01*
X340844D01*
X340781Y420008D01*
X340712Y420020D01*
X340637Y420039D01*
X340550Y420064D01*
X340462Y420089D01*
X340369Y420126D01*
X340281Y420176D01*
X340188Y420233D01*
X340100Y420295D01*
X340019Y420376D01*
X339937Y420464D01*
X339869Y420564D01*
X339862Y420570D01*
X339856Y420589D01*
X339838Y420626D01*
X339812Y420676D01*
X339788Y420733D01*
X339762Y420814D01*
X339731Y420901D01*
X339700Y421001D01*
X339663Y421120D01*
X339631Y421251D01*
X339606Y421401D01*
X339581Y421558D01*
X339556Y421733D01*
X339538Y421920D01*
X339531Y422120D01*
X339525Y422339D01*
Y422345D01*
Y422351D01*
Y422370D01*
Y422395D01*
Y422458D01*
X339531Y422539D01*
X339538Y422639D01*
X339544Y422758D01*
X339556Y422883D01*
X339569Y423020D01*
X339587Y423164D01*
X339613Y423314D01*
X339675Y423608D01*
X339713Y423751D01*
X339762Y423889D01*
X339812Y424014D01*
X339875Y424126D01*
X339881Y424133D01*
X339894Y424151D01*
X339913Y424176D01*
X339944Y424214D01*
X339981Y424258D01*
X340025Y424308D01*
X340081Y424358D01*
X340144Y424414D01*
X340219Y424464D01*
X340300Y424514D01*
X340388Y424564D01*
X340488Y424608D01*
X340594Y424645D01*
X340712Y424670D01*
X340838Y424689D01*
X340969Y424695D01*
X341000D01*
X341038Y424689D01*
D02*
G37*
G36*
X337644D02*
X337700D01*
X337756Y424676D01*
X337831Y424664D01*
X337906Y424645D01*
X337994Y424620D01*
X338081Y424589D01*
X338169Y424551D01*
X338263Y424501D01*
X338350Y424445D01*
X338438Y424383D01*
X338519Y424301D01*
X338600Y424214D01*
X338669Y424108D01*
X338675Y424101D01*
X338681Y424083D01*
X338700Y424045D01*
X338725Y423995D01*
X338750Y423933D01*
X338781Y423858D01*
X338812Y423770D01*
X338844Y423664D01*
X338875Y423551D01*
X338906Y423420D01*
X338937Y423270D01*
X338963Y423114D01*
X338987Y422939D01*
X339006Y422751D01*
X339013Y422551D01*
X339019Y422339D01*
Y422333D01*
Y422326D01*
Y422308D01*
Y422289D01*
Y422226D01*
X339013Y422139D01*
X339006Y422039D01*
X339000Y421926D01*
X338987Y421801D01*
X338975Y421664D01*
X338956Y421520D01*
X338931Y421370D01*
X338906Y421220D01*
X338869Y421076D01*
X338825Y420933D01*
X338781Y420795D01*
X338725Y420670D01*
X338663Y420558D01*
X338656Y420551D01*
X338644Y420533D01*
X338625Y420508D01*
X338594Y420470D01*
X338556Y420426D01*
X338512Y420376D01*
X338456Y420326D01*
X338394Y420276D01*
X338319Y420220D01*
X338244Y420170D01*
X338150Y420120D01*
X338056Y420076D01*
X337950Y420039D01*
X337831Y420014D01*
X337706Y419995D01*
X337575Y419989D01*
X337544D01*
X337506Y419995D01*
X337450D01*
X337387Y420008D01*
X337319Y420020D01*
X337244Y420039D01*
X337156Y420064D01*
X337069Y420089D01*
X336975Y420126D01*
X336888Y420176D01*
X336794Y420233D01*
X336706Y420295D01*
X336625Y420376D01*
X336544Y420464D01*
X336475Y420564D01*
X336469Y420570D01*
X336462Y420589D01*
X336444Y420626D01*
X336419Y420676D01*
X336394Y420733D01*
X336369Y420814D01*
X336337Y420901D01*
X336306Y421001D01*
X336269Y421120D01*
X336238Y421251D01*
X336212Y421401D01*
X336188Y421558D01*
X336162Y421733D01*
X336144Y421920D01*
X336138Y422120D01*
X336131Y422339D01*
Y422345D01*
Y422351D01*
Y422370D01*
Y422395D01*
Y422458D01*
X336138Y422539D01*
X336144Y422639D01*
X336150Y422758D01*
X336162Y422883D01*
X336175Y423020D01*
X336194Y423164D01*
X336219Y423314D01*
X336281Y423608D01*
X336319Y423751D01*
X336369Y423889D01*
X336419Y424014D01*
X336481Y424126D01*
X336488Y424133D01*
X336500Y424151D01*
X336519Y424176D01*
X336550Y424214D01*
X336588Y424258D01*
X336631Y424308D01*
X336687Y424358D01*
X336750Y424414D01*
X336825Y424464D01*
X336906Y424514D01*
X336994Y424564D01*
X337094Y424608D01*
X337200Y424645D01*
X337319Y424670D01*
X337444Y424689D01*
X337575Y424695D01*
X337606D01*
X337644Y424689D01*
D02*
G37*
G36*
X328969Y423558D02*
X329031Y423551D01*
X329094Y423539D01*
X329169Y423526D01*
X329250Y423508D01*
X329338Y423483D01*
X329425Y423451D01*
X329519Y423414D01*
X329612Y423364D01*
X329700Y423314D01*
X329794Y423251D01*
X329875Y423176D01*
X329956Y423095D01*
X329962Y423089D01*
X329975Y423076D01*
X329994Y423045D01*
X330019Y423008D01*
X330050Y422958D01*
X330087Y422901D01*
X330125Y422833D01*
X330163Y422751D01*
X330200Y422664D01*
X330238Y422564D01*
X330275Y422458D01*
X330306Y422339D01*
X330331Y422208D01*
X330350Y422070D01*
X330363Y421926D01*
X330369Y421770D01*
Y421758D01*
Y421733D01*
Y421689D01*
X330363Y421626D01*
X330356Y421558D01*
X330350Y421476D01*
X330338Y421383D01*
X330319Y421283D01*
X330269Y421070D01*
X330238Y420964D01*
X330194Y420851D01*
X330150Y420745D01*
X330094Y420639D01*
X330031Y420545D01*
X329956Y420451D01*
X329950Y420445D01*
X329938Y420433D01*
X329912Y420408D01*
X329881Y420376D01*
X329837Y420345D01*
X329787Y420308D01*
X329731Y420264D01*
X329662Y420220D01*
X329588Y420176D01*
X329506Y420133D01*
X329419Y420095D01*
X329319Y420064D01*
X329212Y420033D01*
X329100Y420008D01*
X328981Y419995D01*
X328856Y419989D01*
X328825D01*
X328787Y419995D01*
X328737D01*
X328681Y420001D01*
X328612Y420014D01*
X328538Y420026D01*
X328450Y420051D01*
X328362Y420076D01*
X328275Y420108D01*
X328181Y420145D01*
X328087Y420189D01*
X328000Y420245D01*
X327906Y420308D01*
X327825Y420383D01*
X327744Y420464D01*
X327737Y420470D01*
X327725Y420489D01*
X327706Y420514D01*
X327681Y420551D01*
X327650Y420601D01*
X327619Y420658D01*
X327581Y420726D01*
X327544Y420808D01*
X327506Y420895D01*
X327469Y420995D01*
X327437Y421101D01*
X327406Y421220D01*
X327381Y421345D01*
X327362Y421476D01*
X327350Y421620D01*
X327344Y421770D01*
Y421783D01*
Y421808D01*
Y421851D01*
X327350Y421908D01*
X327356Y421983D01*
X327369Y422064D01*
X327381Y422158D01*
X327394Y422251D01*
X327444Y422464D01*
X327475Y422576D01*
X327519Y422683D01*
X327562Y422795D01*
X327619Y422895D01*
X327681Y422995D01*
X327756Y423089D01*
X327763Y423095D01*
X327775Y423108D01*
X327800Y423133D01*
X327831Y423164D01*
X327875Y423201D01*
X327925Y423239D01*
X327981Y423283D01*
X328050Y423326D01*
X328125Y423370D01*
X328206Y423414D01*
X328300Y423451D01*
X328400Y423489D01*
X328500Y423520D01*
X328612Y423545D01*
X328731Y423558D01*
X328856Y423564D01*
X328925D01*
X328969Y423558D01*
D02*
G37*
%LPC*%
G36*
X329825Y442558D02*
X329600D01*
X329450Y442533D01*
X329275Y442508D01*
X329075Y442408D01*
X329050Y442383D01*
X329025Y442358D01*
X328975D01*
X328950Y442333D01*
X328850Y442258D01*
X328750Y442133D01*
X328650Y441983D01*
X328625Y441958D01*
X320675Y428183D01*
Y428158D01*
Y428133D01*
X320650Y428108D01*
X320600Y428008D01*
Y427983D01*
X320575Y427933D01*
X320550Y427883D01*
Y427833D01*
Y427808D01*
Y427758D01*
X320525Y427683D01*
Y427583D01*
X320550Y427308D01*
X320600Y427183D01*
X320675Y427033D01*
X320700Y426983D01*
X320775Y426883D01*
X320800Y426858D01*
X320900Y426758D01*
X320925D01*
X320950Y426708D01*
X321025Y426658D01*
X321125Y426608D01*
X321375Y426508D01*
X321525Y426483D01*
X321700Y426458D01*
X337800D01*
X337850Y426483D01*
X337925Y426508D01*
X337975Y426533D01*
X337950Y426508D01*
X337975D01*
X338025Y426533D01*
X338100Y426558D01*
X338200Y426633D01*
X338425Y426783D01*
X338525Y426908D01*
X338625Y427033D01*
Y427058D01*
X338650Y427083D01*
X338700Y427208D01*
X338750Y427383D01*
X338775Y427608D01*
Y427633D01*
Y427658D01*
Y427708D01*
Y427758D01*
X338750Y427858D01*
X338700Y428033D01*
X338625Y428208D01*
X338600D01*
X330650Y441983D01*
Y442008D01*
X330600Y442058D01*
X330550Y442133D01*
X330525Y442158D01*
X330500Y442208D01*
X330425Y442258D01*
X330400Y442283D01*
X330375Y442308D01*
X330300Y442358D01*
X330200Y442408D01*
X329950Y442508D01*
X329825Y442558D01*
D02*
G37*
%LPD*%
G36*
X327350Y433108D02*
X332600Y435808D01*
X329400Y429208D01*
X330550Y429483D01*
X328650Y427258D01*
X328200Y429908D01*
X329075Y429233D01*
X330325Y434008D01*
X326300Y432008D01*
X328875Y440933D01*
X330775Y441008D01*
X327350Y433108D01*
D02*
G37*
%LPC*%
G36*
X320050Y423020D02*
X320006D01*
X319963Y423014D01*
X319900Y423008D01*
X319825Y422995D01*
X319750Y422970D01*
X319662Y422945D01*
X319575Y422908D01*
X319563Y422901D01*
X319537Y422889D01*
X319494Y422864D01*
X319438Y422833D01*
X319375Y422795D01*
X319300Y422745D01*
X319225Y422695D01*
X319150Y422633D01*
Y420714D01*
X319163Y420708D01*
X319187Y420695D01*
X319231Y420676D01*
X319281Y420651D01*
X319344Y420626D01*
X319406Y420601D01*
X319469Y420583D01*
X319531Y420564D01*
X319537D01*
X319563Y420558D01*
X319594Y420551D01*
X319637Y420545D01*
X319694Y420539D01*
X319756Y420533D01*
X319825Y420526D01*
X319944D01*
X319975Y420533D01*
X320012Y420539D01*
X320056Y420545D01*
X320150Y420564D01*
X320263Y420601D01*
X320375Y420664D01*
X320431Y420695D01*
X320487Y420739D01*
X320537Y420789D01*
X320587Y420845D01*
Y420851D01*
X320600Y420858D01*
X320613Y420876D01*
X320625Y420908D01*
X320644Y420939D01*
X320669Y420983D01*
X320688Y421033D01*
X320712Y421089D01*
X320738Y421151D01*
X320756Y421220D01*
X320781Y421295D01*
X320800Y421383D01*
X320813Y421476D01*
X320825Y421576D01*
X320837Y421683D01*
Y421795D01*
Y421801D01*
Y421820D01*
Y421851D01*
Y421889D01*
X320831Y421939D01*
X320825Y421995D01*
X320813Y422126D01*
X320794Y422270D01*
X320756Y422420D01*
X320712Y422564D01*
X320650Y422695D01*
Y422701D01*
X320644Y422708D01*
X320613Y422745D01*
X320569Y422795D01*
X320506Y422858D01*
X320419Y422920D01*
X320319Y422970D01*
X320194Y423008D01*
X320125Y423014D01*
X320050Y423020D01*
D02*
G37*
G36*
X340969Y424195D02*
X340925D01*
X340881Y424189D01*
X340819Y424183D01*
X340756Y424164D01*
X340681Y424145D01*
X340613Y424114D01*
X340550Y424070D01*
X340544Y424064D01*
X340525Y424045D01*
X340494Y424020D01*
X340462Y423983D01*
X340419Y423933D01*
X340381Y423870D01*
X340337Y423795D01*
X340300Y423714D01*
X340294Y423701D01*
X340287Y423670D01*
X340269Y423620D01*
X340250Y423551D01*
X340231Y423470D01*
X340206Y423370D01*
X340188Y423251D01*
X340175Y423126D01*
Y423120D01*
Y423108D01*
Y423089D01*
X340169Y423064D01*
Y423033D01*
X340162Y422995D01*
Y422895D01*
X340156Y422783D01*
X340150Y422645D01*
X340144Y422501D01*
Y422339D01*
Y422333D01*
Y422320D01*
Y422295D01*
Y422258D01*
Y422220D01*
Y422170D01*
X340150Y422064D01*
Y421939D01*
X340156Y421801D01*
X340162Y421670D01*
X340169Y421545D01*
Y421539D01*
Y421533D01*
X340175Y421514D01*
Y421489D01*
X340181Y421433D01*
X340194Y421351D01*
X340212Y421264D01*
X340237Y421170D01*
X340294Y420970D01*
X340300Y420958D01*
X340313Y420933D01*
X340331Y420889D01*
X340356Y420839D01*
X340394Y420783D01*
X340438Y420720D01*
X340488Y420664D01*
X340544Y420614D01*
X340550Y420608D01*
X340575Y420595D01*
X340606Y420576D01*
X340656Y420551D01*
X340719Y420526D01*
X340794Y420508D01*
X340875Y420495D01*
X340969Y420489D01*
X341013D01*
X341056Y420495D01*
X341112Y420501D01*
X341175Y420520D01*
X341244Y420539D01*
X341313Y420570D01*
X341375Y420608D01*
X341381Y420614D01*
X341400Y420633D01*
X341431Y420658D01*
X341469Y420695D01*
X341506Y420745D01*
X341550Y420808D01*
X341594Y420883D01*
X341631Y420964D01*
X341637Y420976D01*
X341644Y421008D01*
X341663Y421051D01*
X341681Y421120D01*
X341700Y421201D01*
X341719Y421301D01*
X341738Y421408D01*
X341756Y421533D01*
Y421539D01*
Y421551D01*
X341762Y421570D01*
Y421595D01*
Y421626D01*
X341769Y421664D01*
X341775Y421764D01*
X341781Y421883D01*
X341788Y422020D01*
X341794Y422170D01*
Y422339D01*
Y422345D01*
Y422358D01*
Y422383D01*
Y422420D01*
Y422458D01*
Y422508D01*
X341788Y422614D01*
Y422745D01*
X341781Y422883D01*
X341769Y423020D01*
X341756Y423151D01*
Y423158D01*
Y423164D01*
X341750Y423183D01*
Y423208D01*
X341738Y423270D01*
X341725Y423351D01*
X341706Y423439D01*
X341687Y423539D01*
X341656Y423633D01*
X341625Y423720D01*
X341619Y423733D01*
X341606Y423758D01*
X341587Y423801D01*
X341563Y423851D01*
X341525Y423908D01*
X341481Y423964D01*
X341431Y424020D01*
X341375Y424070D01*
X341369Y424076D01*
X341350Y424089D01*
X341313Y424108D01*
X341269Y424133D01*
X341206Y424158D01*
X341138Y424176D01*
X341056Y424189D01*
X340969Y424195D01*
D02*
G37*
G36*
X337575D02*
X337531D01*
X337488Y424189D01*
X337425Y424183D01*
X337363Y424164D01*
X337287Y424145D01*
X337219Y424114D01*
X337156Y424070D01*
X337150Y424064D01*
X337131Y424045D01*
X337100Y424020D01*
X337069Y423983D01*
X337025Y423933D01*
X336987Y423870D01*
X336944Y423795D01*
X336906Y423714D01*
X336900Y423701D01*
X336894Y423670D01*
X336875Y423620D01*
X336856Y423551D01*
X336838Y423470D01*
X336812Y423370D01*
X336794Y423251D01*
X336781Y423126D01*
Y423120D01*
Y423108D01*
Y423089D01*
X336775Y423064D01*
Y423033D01*
X336769Y422995D01*
Y422895D01*
X336762Y422783D01*
X336756Y422645D01*
X336750Y422501D01*
Y422339D01*
Y422333D01*
Y422320D01*
Y422295D01*
Y422258D01*
Y422220D01*
Y422170D01*
X336756Y422064D01*
Y421939D01*
X336762Y421801D01*
X336769Y421670D01*
X336775Y421545D01*
Y421539D01*
Y421533D01*
X336781Y421514D01*
Y421489D01*
X336788Y421433D01*
X336800Y421351D01*
X336819Y421264D01*
X336844Y421170D01*
X336900Y420970D01*
X336906Y420958D01*
X336919Y420933D01*
X336937Y420889D01*
X336963Y420839D01*
X337000Y420783D01*
X337044Y420720D01*
X337094Y420664D01*
X337150Y420614D01*
X337156Y420608D01*
X337181Y420595D01*
X337212Y420576D01*
X337263Y420551D01*
X337325Y420526D01*
X337400Y420508D01*
X337481Y420495D01*
X337575Y420489D01*
X337619D01*
X337663Y420495D01*
X337719Y420501D01*
X337781Y420520D01*
X337850Y420539D01*
X337919Y420570D01*
X337981Y420608D01*
X337987Y420614D01*
X338006Y420633D01*
X338037Y420658D01*
X338075Y420695D01*
X338112Y420745D01*
X338156Y420808D01*
X338200Y420883D01*
X338238Y420964D01*
X338244Y420976D01*
X338250Y421008D01*
X338269Y421051D01*
X338287Y421120D01*
X338306Y421201D01*
X338325Y421301D01*
X338344Y421408D01*
X338363Y421533D01*
Y421539D01*
Y421551D01*
X338369Y421570D01*
Y421595D01*
Y421626D01*
X338375Y421664D01*
X338381Y421764D01*
X338387Y421883D01*
X338394Y422020D01*
X338400Y422170D01*
Y422339D01*
Y422345D01*
Y422358D01*
Y422383D01*
Y422420D01*
Y422458D01*
Y422508D01*
X338394Y422614D01*
Y422745D01*
X338387Y422883D01*
X338375Y423020D01*
X338363Y423151D01*
Y423158D01*
Y423164D01*
X338356Y423183D01*
Y423208D01*
X338344Y423270D01*
X338331Y423351D01*
X338313Y423439D01*
X338294Y423539D01*
X338263Y423633D01*
X338231Y423720D01*
X338225Y423733D01*
X338212Y423758D01*
X338194Y423801D01*
X338169Y423851D01*
X338131Y423908D01*
X338088Y423964D01*
X338037Y424020D01*
X337981Y424070D01*
X337975Y424076D01*
X337956Y424089D01*
X337919Y424108D01*
X337875Y424133D01*
X337812Y424158D01*
X337744Y424176D01*
X337663Y424189D01*
X337575Y424195D01*
D02*
G37*
G36*
X328856Y423064D02*
X328813D01*
X328781Y423058D01*
X328744Y423051D01*
X328706Y423045D01*
X328606Y423026D01*
X328494Y422989D01*
X328381Y422933D01*
X328325Y422895D01*
X328269Y422851D01*
X328219Y422801D01*
X328169Y422745D01*
Y422739D01*
X328156Y422733D01*
X328150Y422714D01*
X328131Y422683D01*
X328113Y422651D01*
X328094Y422608D01*
X328075Y422558D01*
X328050Y422501D01*
X328025Y422439D01*
X328006Y422370D01*
X327988Y422289D01*
X327969Y422201D01*
X327956Y422101D01*
X327944Y422001D01*
X327931Y421889D01*
Y421770D01*
Y421764D01*
Y421745D01*
Y421708D01*
X327938Y421664D01*
Y421614D01*
X327944Y421551D01*
X327950Y421489D01*
X327962Y421414D01*
X327988Y421258D01*
X328031Y421101D01*
X328087Y420951D01*
X328125Y420876D01*
X328169Y420814D01*
Y420808D01*
X328181Y420801D01*
X328212Y420764D01*
X328269Y420714D01*
X328344Y420651D01*
X328444Y420589D01*
X328562Y420539D01*
X328700Y420501D01*
X328775Y420495D01*
X328856Y420489D01*
X328900D01*
X328931Y420495D01*
X328962Y420501D01*
X329006Y420508D01*
X329106Y420526D01*
X329212Y420564D01*
X329331Y420626D01*
X329381Y420658D01*
X329437Y420701D01*
X329487Y420751D01*
X329538Y420808D01*
Y420814D01*
X329550Y420820D01*
X329562Y420839D01*
X329575Y420870D01*
X329594Y420901D01*
X329612Y420945D01*
X329638Y420989D01*
X329662Y421045D01*
X329681Y421114D01*
X329706Y421183D01*
X329725Y421264D01*
X329744Y421351D01*
X329756Y421445D01*
X329769Y421545D01*
X329781Y421651D01*
Y421770D01*
Y421776D01*
Y421801D01*
Y421833D01*
X329775Y421876D01*
Y421933D01*
X329769Y421995D01*
X329763Y422064D01*
X329750Y422139D01*
X329725Y422295D01*
X329681Y422458D01*
X329619Y422614D01*
X329581Y422683D01*
X329538Y422745D01*
Y422751D01*
X329525Y422758D01*
X329494Y422795D01*
X329437Y422845D01*
X329363Y422908D01*
X329269Y422964D01*
X329150Y423014D01*
X329012Y423051D01*
X328938Y423058D01*
X328856Y423064D01*
D02*
G37*
%LPD*%
D10*
X508465Y333602D02*
X507508Y333412D01*
X506697Y332870D01*
X506155Y332059D01*
X505965Y331102D01*
X506155Y330146D01*
X506697Y329335D01*
X507508Y328793D01*
X508465Y328602D01*
X409252Y333602D02*
X408295Y333412D01*
X407484Y332870D01*
X406942Y332059D01*
X406752Y331102D01*
X406942Y330146D01*
X407484Y329335D01*
X408295Y328793D01*
X409252Y328602D01*
X315736Y389756D02*
X316678Y389943D01*
X317476Y390477D01*
X318009Y391275D01*
X318197Y392216D01*
X318009Y393158D01*
X317476Y393956D01*
X316678Y394490D01*
X315736Y394677D01*
X523196Y369578D02*
X522384Y370151D01*
X521520Y370643D01*
X520613Y371048D01*
X519670Y371364D01*
X518702Y371587D01*
X517716Y371715D01*
X516723Y371747D01*
X515731Y371682D01*
X514750Y371521D01*
X513790Y371266D01*
X512858Y370919D01*
X511965Y370483D01*
X511118Y369963D01*
X510326Y369363D01*
X509595Y368689D01*
X508934Y367948D01*
X508347Y367145D01*
X507841Y366290D01*
X507420Y365389D01*
X507089Y364453D01*
X506850Y363488D01*
X506706Y362505D01*
X506658Y361512D01*
X506706Y360519D01*
X506850Y359536D01*
X507089Y358571D01*
X507420Y357634D01*
X507841Y356734D01*
X508347Y355878D01*
X508934Y355076D01*
X509595Y354334D01*
X510326Y353660D01*
X511118Y353061D01*
X511965Y352540D01*
X512858Y352105D01*
X513790Y351758D01*
X514750Y351502D01*
X515731Y351342D01*
X516723Y351277D01*
X517716Y351309D01*
X518702Y351436D01*
X519670Y351659D01*
X520613Y351975D01*
X521520Y352381D01*
X522384Y352872D01*
X523196Y353446D01*
X500736Y400756D02*
X501678Y400943D01*
X502476Y401477D01*
X503010Y402275D01*
X503197Y403217D01*
X503010Y404158D01*
X502476Y404956D01*
X501678Y405490D01*
X500736Y405677D01*
X428465Y337854D02*
X508465D01*
X428465Y324350D02*
Y337854D01*
Y324350D02*
X508465D01*
Y328602D01*
Y333602D02*
Y337854D01*
X424500Y371500D02*
Y379500D01*
X400500Y371500D02*
X424500D01*
X400500D02*
Y379500D01*
X424500D01*
Y375500D02*
X428500D01*
X396500D02*
X400500D01*
X387000Y395500D02*
Y403500D01*
X363000Y395500D02*
X387000D01*
X363000D02*
Y403500D01*
X387000D01*
Y399500D02*
X391000D01*
X359000D02*
X363000D01*
X476024Y442783D02*
Y463059D01*
X403976Y407941D02*
Y428217D01*
Y463059D02*
X476024D01*
X403976Y442783D02*
Y463059D01*
X476024Y407941D02*
Y428217D01*
X403976Y407941D02*
X476024D01*
X435563Y383658D02*
X443437D01*
X435563Y403342D02*
X443437D01*
Y383658D02*
Y403342D01*
X435563Y383658D02*
Y403342D01*
X329252Y337854D02*
X409252D01*
X329252Y324350D02*
Y337854D01*
Y324350D02*
X409252D01*
Y328602D01*
Y333602D02*
Y337854D01*
X315736Y382709D02*
X345264D01*
Y401724D01*
X315736D02*
X345264D01*
X315736Y394677D02*
Y401724D01*
Y382709D02*
Y389756D01*
X385933Y416988D02*
Y428012D01*
X365067Y416988D02*
X385933D01*
X365067Y428012D02*
X385933D01*
X523193Y353446D02*
Y369578D01*
X468713Y394122D02*
X470287D01*
X468713Y396878D02*
X470287D01*
X511500Y443500D02*
X531500D01*
Y453500D01*
X511500D02*
X531500D01*
X511500Y443500D02*
Y453500D01*
X500736Y393709D02*
Y400756D01*
Y405677D02*
Y412724D01*
X530264D01*
Y393709D02*
Y412724D01*
X500736Y393709D02*
X530264D01*
X327362Y453937D02*
Y455512D01*
X324606Y453937D02*
Y455512D01*
X444658Y372803D02*
Y373197D01*
X439342Y372803D02*
Y373197D01*
X412303Y368264D02*
X412697D01*
X412303Y363736D02*
X412697D01*
D11*
X439500Y400193D02*
X438956Y400942D01*
X438076Y400656D01*
Y399730D01*
X438956Y399444D01*
X439500Y400193D01*
D12*
X430740Y404347D02*
X430002Y404773D01*
Y403920D01*
X430740Y404347D01*
X523213Y350095D02*
X522474Y350521D01*
Y349668D01*
X523213Y350095D01*
D13*
X370000Y384343D02*
X369945Y385333D01*
X369782Y386311D01*
X369512Y387265D01*
X369139Y388183D01*
X368667Y389056D01*
X368102Y389870D01*
X367451Y390618D01*
X366722Y391290D01*
X365922Y391877D01*
X365064Y392373D01*
X364156Y392771D01*
X363209Y393067D01*
X362236Y393257D01*
X361248Y393339D01*
X360257Y393312D01*
X359275Y393176D01*
X358313Y392932D01*
X357385Y392584D01*
X356500Y392137D01*
X355670Y391594D01*
X354905Y390964D01*
X354213Y390253D01*
X353604Y389471D01*
X353085Y388626D01*
X352661Y387729D01*
X352340Y386791D01*
X352123Y385824D01*
X352014Y384838D01*
Y383847D01*
X352123Y382861D01*
X352340Y381894D01*
X352662Y380956D01*
X353085Y380059D01*
X353604Y379214D01*
X354213Y378432D01*
X354905Y377721D01*
X355670Y377091D01*
X356500Y376548D01*
X357385Y376101D01*
X358313Y375753D01*
X359275Y375510D01*
X360257Y375373D01*
X361248Y375346D01*
X362236Y375428D01*
X363209Y375618D01*
X364156Y375914D01*
X365064Y376312D01*
X365923Y376808D01*
X366722Y377395D01*
X367451Y378067D01*
X368102Y378815D01*
X368667Y379629D01*
X369139Y380502D01*
X369512Y381420D01*
X369782Y382374D01*
X369945Y383352D01*
X370000Y384343D01*
X481500Y383343D02*
X481445Y384333D01*
X481282Y385311D01*
X481012Y386265D01*
X480639Y387183D01*
X480167Y388056D01*
X479602Y388870D01*
X478951Y389618D01*
X478222Y390290D01*
X477423Y390877D01*
X476564Y391373D01*
X475656Y391771D01*
X474709Y392067D01*
X473736Y392257D01*
X472748Y392339D01*
X471757Y392312D01*
X470775Y392176D01*
X469813Y391932D01*
X468885Y391584D01*
X468000Y391137D01*
X467170Y390594D01*
X466404Y389964D01*
X465713Y389253D01*
X465104Y388471D01*
X464585Y387626D01*
X464161Y386729D01*
X463840Y385791D01*
X463623Y384824D01*
X463514Y383838D01*
Y382847D01*
X463623Y381861D01*
X463840Y380894D01*
X464162Y379956D01*
X464585Y379059D01*
X465104Y378214D01*
X465713Y377432D01*
X466404Y376721D01*
X467170Y376091D01*
X468000Y375548D01*
X468885Y375101D01*
X469813Y374753D01*
X470775Y374510D01*
X471757Y374373D01*
X472748Y374346D01*
X473736Y374428D01*
X474709Y374618D01*
X475656Y374914D01*
X476564Y375312D01*
X477423Y375808D01*
X478222Y376395D01*
X478951Y377067D01*
X479602Y377815D01*
X480167Y378629D01*
X480639Y379502D01*
X481012Y380420D01*
X481282Y381374D01*
X481445Y382352D01*
X481500Y383343D01*
X387379Y301007D02*
X466344Y301007D01*
Y294717D02*
Y301007D01*
Y294717D02*
X479734D01*
Y278917D02*
Y294717D01*
Y278917D02*
X481934D01*
Y269817D02*
Y278917D01*
X371631Y269817D02*
X481934Y269817D01*
X371564D02*
Y278917D01*
X373764D01*
Y294717D01*
X387154D01*
Y301007D01*
X351969Y451274D02*
Y445276D01*
X354967D01*
X355967Y446275D01*
Y450274D01*
X354967Y451274D01*
X351969D01*
X361965Y445276D02*
X357967D01*
X361965Y449274D01*
Y450274D01*
X360966Y451274D01*
X358966D01*
X357967Y450274D01*
X373684Y375077D02*
X372684Y376077D01*
X370685D01*
X369685Y375077D01*
Y371078D01*
X370685Y370079D01*
X372684D01*
X373684Y371078D01*
X379682Y370079D02*
X375683D01*
X379682Y374077D01*
Y375077D01*
X378682Y376077D01*
X376683D01*
X375683Y375077D01*
X441007Y361298D02*
X440007Y362297D01*
X438007D01*
X437008Y361298D01*
Y357299D01*
X438007Y356299D01*
X440007D01*
X441007Y357299D01*
X443006Y361298D02*
X444006Y362297D01*
X446005D01*
X447005Y361298D01*
Y360298D01*
X446005Y359298D01*
X445005D01*
X446005D01*
X447005Y358299D01*
Y357299D01*
X446005Y356299D01*
X444006D01*
X443006Y357299D01*
X411085Y359329D02*
X410086Y360329D01*
X408086D01*
X407087Y359329D01*
Y355330D01*
X408086Y354331D01*
X410086D01*
X411085Y355330D01*
X416084Y354331D02*
Y360329D01*
X413085Y357330D01*
X417083D01*
X521773Y340219D02*
X520774Y339219D01*
Y337220D01*
X521773Y336221D01*
X525772D01*
X526772Y337220D01*
Y339219D01*
X525772Y340219D01*
X520774Y346217D02*
Y342218D01*
X523773D01*
X522773Y344218D01*
Y345218D01*
X523773Y346217D01*
X525772D01*
X526772Y345218D01*
Y343218D01*
X525772Y342218D01*
X488251Y363266D02*
X487251Y364266D01*
X485252D01*
X484252Y363266D01*
Y359267D01*
X485252Y358268D01*
X487251D01*
X488251Y359267D01*
X494249Y364266D02*
X492249Y363266D01*
X490250Y361267D01*
Y359267D01*
X491250Y358268D01*
X493249D01*
X494249Y359267D01*
Y360267D01*
X493249Y361267D01*
X490250D01*
X375197Y413085D02*
Y407087D01*
X378196D01*
X379196Y408086D01*
Y412085D01*
X378196Y413085D01*
X375197D01*
X381195Y407087D02*
X383194D01*
X382195D01*
Y413085D01*
X381195Y412085D01*
X411417Y472927D02*
Y466929D01*
X415416D01*
X417415D02*
X419415D01*
X418415D01*
Y472927D01*
X417415Y471927D01*
X512100Y456900D02*
Y462898D01*
X515099D01*
X516099Y461898D01*
Y459899D01*
X515099Y458899D01*
X512100D01*
X518098Y456900D02*
X520097D01*
X519098D01*
Y462898D01*
X518098Y461898D01*
X354392Y478165D02*
Y482164D01*
X353393Y483163D01*
X351393D01*
X350394Y482164D01*
Y478165D01*
X351393Y477165D01*
X353393D01*
X352393Y479165D02*
X354392Y477165D01*
X353393D02*
X354392Y478165D01*
X356392Y477165D02*
X358391D01*
X357391D01*
Y483163D01*
X356392Y482164D01*
X465600Y400900D02*
Y406898D01*
X468599D01*
X469599Y405898D01*
Y403899D01*
X468599Y402899D01*
X465600D01*
X467599D02*
X469599Y400900D01*
X471598D02*
X473597D01*
X472598D01*
Y406898D01*
X471598Y405898D01*
X330315Y476378D02*
Y482376D01*
X333314D01*
X334314Y481376D01*
Y479377D01*
X333314Y478377D01*
X330315D01*
X332314D02*
X334314Y476378D01*
X340312D02*
X336313D01*
X340312Y480377D01*
Y481376D01*
X339312Y482376D01*
X337313D01*
X336313Y481376D01*
X375197Y386614D02*
Y392612D01*
X378196D01*
X379196Y391613D01*
Y389613D01*
X378196Y388614D01*
X375197D01*
X377196D02*
X379196Y386614D01*
X381195Y391613D02*
X382195Y392612D01*
X384194D01*
X385194Y391613D01*
Y390613D01*
X384194Y389613D01*
X383194D01*
X384194D01*
X385194Y388614D01*
Y387614D01*
X384194Y386614D01*
X382195D01*
X381195Y387614D01*
X401181Y381500D02*
Y387498D01*
X404180D01*
X405180Y386498D01*
Y384499D01*
X404180Y383499D01*
X401181D01*
X403181D02*
X405180Y381500D01*
X410178D02*
Y387498D01*
X407179Y384499D01*
X411178D01*
X415000Y390250D02*
Y385252D01*
X416000Y384252D01*
X417999D01*
X418999Y385252D01*
Y390250D01*
X420998Y384252D02*
X422997D01*
X421998D01*
Y390250D01*
X420998Y389250D01*
X503394Y384010D02*
Y379012D01*
X504393Y378012D01*
X506393D01*
X507392Y379012D01*
Y384010D01*
X513390Y378012D02*
X509392D01*
X513390Y382011D01*
Y383010D01*
X512391Y384010D01*
X510391D01*
X509392Y383010D01*
X501300Y435298D02*
Y429300D01*
X504299D01*
X505299Y430300D01*
Y431299D01*
X504299Y432299D01*
X501300D01*
X504299D01*
X505299Y433299D01*
Y434298D01*
X504299Y435298D01*
X501300D01*
X507298Y429300D02*
X509297D01*
X508298D01*
Y435298D01*
X507298Y434298D01*
X374779Y307955D02*
X372780D01*
X373780D01*
Y302956D01*
X372780Y301957D01*
X371780D01*
X370781Y302956D01*
X376779Y301957D02*
X378778D01*
X377779D01*
Y307955D01*
X376779Y306955D01*
X489432Y386101D02*
X488432Y387100D01*
X486433D01*
X485433Y386101D01*
Y382102D01*
X486433Y381102D01*
X488432D01*
X489432Y382102D01*
X491431Y381102D02*
X493431D01*
X492431D01*
Y387100D01*
X491431Y386101D01*
X480499Y464498D02*
X479499Y465498D01*
X477500D01*
X476500Y464498D01*
Y463499D01*
X477500Y462499D01*
X479499D01*
X480499Y461499D01*
Y460500D01*
X479499Y459500D01*
X477500D01*
X476500Y460500D01*
X482498Y459500D02*
X484497D01*
X483498D01*
Y465498D01*
X482498Y464498D01*
D14*
X365250Y385842D02*
Y387842D01*
X364500Y386842D02*
X366000D01*
X476000Y385842D02*
X477500D01*
X476750Y384842D02*
Y386842D01*
D15*
X366248Y422501D02*
D03*
M02*
