G04*
G04 #@! TF.GenerationSoftware,Altium Limited,Altium Designer,18.1.7 (191)*
G04*
G04 Layer_Color=8421504*
%FSLAX25Y25*%
%MOIN*%
G70*
G01*
G75*
%ADD16R,0.05512X0.04331*%
%ADD17R,0.35000X0.45000*%
%ADD18R,0.15000X0.08000*%
%ADD19R,0.11811X0.11417*%
%ADD20O,0.07480X0.02362*%
%ADD21R,0.02360X0.07100*%
%ADD22R,0.08700X0.09800*%
G04:AMPARAMS|DCode=23|XSize=51.18mil|YSize=55.12mil|CornerRadius=0mil|HoleSize=0mil|Usage=FLASHONLY|Rotation=50.000|XOffset=0mil|YOffset=0mil|HoleType=Round|Shape=Rectangle|*
%AMROTATEDRECTD23*
4,1,4,0.00466,-0.03732,-0.03756,-0.00189,-0.00466,0.03732,0.03756,0.00189,0.00466,-0.03732,0.0*
%
%ADD23ROTATEDRECTD23*%

%ADD24R,0.02756X0.03543*%
%ADD25R,0.03543X0.02756*%
%ADD26R,0.06102X0.05315*%
%ADD27R,0.03740X0.05315*%
D16*
X527953Y360039D02*
D03*
Y365945D02*
D03*
X500894Y358059D02*
D03*
Y363965D02*
D03*
D17*
X385039Y459449D02*
D03*
D18*
X340039Y469449D02*
D03*
Y449449D02*
D03*
D19*
X470905Y435500D02*
D03*
X409094D02*
D03*
D20*
X448752Y386000D02*
D03*
Y391000D02*
D03*
Y396000D02*
D03*
Y401000D02*
D03*
X430248Y386000D02*
D03*
Y391000D02*
D03*
Y396000D02*
D03*
Y401000D02*
D03*
D21*
X389334Y296457D02*
D03*
X393274D02*
D03*
X397214D02*
D03*
X401154D02*
D03*
X405094D02*
D03*
X448404D02*
D03*
X452344D02*
D03*
X456284D02*
D03*
X460224D02*
D03*
X464164D02*
D03*
X424793D02*
D03*
X420853D02*
D03*
X416913D02*
D03*
X412973D02*
D03*
X409033D02*
D03*
X428731D02*
D03*
X432671D02*
D03*
X436611D02*
D03*
X440551D02*
D03*
X444491D02*
D03*
D22*
X379114Y286457D02*
D03*
X474384D02*
D03*
D23*
X351500Y438500D02*
D03*
X360246Y431161D02*
D03*
D24*
X472453Y395500D02*
D03*
X466547D02*
D03*
D25*
X325984Y457677D02*
D03*
Y451772D02*
D03*
D26*
X442000Y376937D02*
D03*
Y369063D02*
D03*
D27*
X409350Y366000D02*
D03*
X415650D02*
D03*
M02*
