G04*
G04 #@! TF.GenerationSoftware,Altium Limited,Altium Designer,19.1.5 (86)*
G04*
G04 Layer_Color=16711935*
%FSLAX25Y25*%
%MOIN*%
G70*
G01*
G75*
%ADD35R,0.06706X0.06706*%
%ADD36C,0.06706*%
%ADD37C,0.08674*%
%ADD38C,0.07887*%
%ADD39R,0.07887X0.07887*%
%ADD40R,0.07887X0.07887*%
%ADD41O,0.08674X0.10249*%
%ADD42O,0.05524X0.10642*%
%ADD43R,0.05524X0.10642*%
%ADD44C,0.12611*%
D35*
X535039Y478740D02*
D03*
D36*
X525039D02*
D03*
D37*
X444882Y450862D02*
D03*
X405512D02*
D03*
X485055Y481102D02*
D03*
X497055D02*
D03*
X509055D02*
D03*
D38*
X551968Y403150D02*
D03*
X543819Y373622D02*
D03*
X553819Y383622D02*
D03*
Y373622D02*
D03*
X543819Y363622D02*
D03*
X553819D02*
D03*
D39*
X541968Y403150D02*
D03*
D40*
X543819Y383622D02*
D03*
D41*
X395354Y421728D02*
D03*
X405354D02*
D03*
X415354D02*
D03*
D42*
X358898Y317717D02*
D03*
X368898D02*
D03*
X378898D02*
D03*
X388898D02*
D03*
X398898D02*
D03*
X408898D02*
D03*
X418898D02*
D03*
X428898D02*
D03*
X358898Y347638D02*
D03*
X368898D02*
D03*
X378898D02*
D03*
X388898D02*
D03*
X398898D02*
D03*
X408898D02*
D03*
X418898D02*
D03*
X452677Y317717D02*
D03*
X462677D02*
D03*
X472677D02*
D03*
X482677D02*
D03*
X492677D02*
D03*
X502677D02*
D03*
X512677D02*
D03*
X522677D02*
D03*
X452677Y347638D02*
D03*
X462677D02*
D03*
X472677D02*
D03*
X482677D02*
D03*
X492677D02*
D03*
X502677D02*
D03*
X512677D02*
D03*
D43*
X428898D02*
D03*
X522677D02*
D03*
D44*
X555118Y275591D02*
D03*
X553937Y479921D02*
D03*
X319921Y275996D02*
D03*
X320079Y479528D02*
D03*
M02*
