G04*
G04 #@! TF.GenerationSoftware,Altium Limited,Altium Designer,18.1.7 (191)*
G04*
G04 Layer_Color=8388736*
%FSLAX25Y25*%
%MOIN*%
G70*
G01*
G75*
%ADD28R,0.06312X0.05131*%
%ADD29R,0.35800X0.45800*%
%ADD30R,0.15800X0.08800*%
%ADD31R,0.12611X0.12217*%
%ADD32O,0.08280X0.03162*%
%ADD33R,0.02760X0.07500*%
%ADD34R,0.09100X0.10200*%
G04:AMPARAMS|DCode=35|XSize=59.18mil|YSize=63.12mil|CornerRadius=0mil|HoleSize=0mil|Usage=FLASHONLY|Rotation=50.000|XOffset=0mil|YOffset=0mil|HoleType=Round|Shape=Rectangle|*
%AMROTATEDRECTD35*
4,1,4,0.00516,-0.04295,-0.04320,-0.00238,-0.00516,0.04295,0.04320,0.00238,0.00516,-0.04295,0.0*
%
%ADD35ROTATEDRECTD35*%

%ADD36R,0.03556X0.04343*%
%ADD37R,0.04343X0.03556*%
%ADD38R,0.06902X0.06115*%
%ADD39R,0.04540X0.06115*%
%ADD40O,0.05524X0.10642*%
%ADD41R,0.05524X0.10642*%
%ADD42C,0.06312*%
%ADD43C,0.08674*%
%ADD44R,0.08674X0.08674*%
%ADD45R,0.08674X0.04737*%
%ADD46O,0.08674X0.04737*%
%ADD47C,0.12611*%
%ADD48C,0.06706*%
%ADD49R,0.06706X0.06706*%
%ADD50C,0.05524*%
%ADD51C,0.03162*%
D28*
X527953Y360039D02*
D03*
Y365945D02*
D03*
X500894Y358059D02*
D03*
Y363965D02*
D03*
D29*
X385039Y459449D02*
D03*
D30*
X340039Y469449D02*
D03*
Y449449D02*
D03*
D31*
X470905Y435500D02*
D03*
X409094D02*
D03*
D32*
X448752Y386000D02*
D03*
Y391000D02*
D03*
Y396000D02*
D03*
Y401000D02*
D03*
X430248Y386000D02*
D03*
Y391000D02*
D03*
Y396000D02*
D03*
Y401000D02*
D03*
D33*
X389334Y296457D02*
D03*
X393274D02*
D03*
X397214D02*
D03*
X401154D02*
D03*
X405094D02*
D03*
X448404D02*
D03*
X452344D02*
D03*
X456284D02*
D03*
X460224D02*
D03*
X464164D02*
D03*
X424793D02*
D03*
X420853D02*
D03*
X416913D02*
D03*
X412973D02*
D03*
X409033D02*
D03*
X428731D02*
D03*
X432671D02*
D03*
X436611D02*
D03*
X440551D02*
D03*
X444491D02*
D03*
D34*
X379114Y286457D02*
D03*
X474384D02*
D03*
D35*
X351500Y438500D02*
D03*
X360246Y431161D02*
D03*
D36*
X472453Y395500D02*
D03*
X466547D02*
D03*
D37*
X325984Y457677D02*
D03*
Y451772D02*
D03*
D38*
X442000Y376937D02*
D03*
Y369063D02*
D03*
D39*
X409350Y366000D02*
D03*
X415650D02*
D03*
D40*
X433465Y316142D02*
D03*
X443465D02*
D03*
X453465D02*
D03*
X463465D02*
D03*
X473465D02*
D03*
X483465D02*
D03*
X493465D02*
D03*
X503465D02*
D03*
X433465Y346063D02*
D03*
X443465D02*
D03*
X453465D02*
D03*
X463465D02*
D03*
X473465D02*
D03*
X483465D02*
D03*
X493465D02*
D03*
X334252Y316142D02*
D03*
X344252D02*
D03*
X354252D02*
D03*
X364252D02*
D03*
X374252D02*
D03*
X384252D02*
D03*
X394252D02*
D03*
X404252D02*
D03*
X334252Y346063D02*
D03*
X344252D02*
D03*
X354252D02*
D03*
X364252D02*
D03*
X374252D02*
D03*
X384252D02*
D03*
X394252D02*
D03*
X340342Y409933D02*
D03*
X330500D02*
D03*
X320657D02*
D03*
X330500Y374500D02*
D03*
X340342D02*
D03*
X525343Y385500D02*
D03*
X515500D02*
D03*
X505657Y420933D02*
D03*
X515500D02*
D03*
X525343D02*
D03*
D41*
X503465Y346063D02*
D03*
X404252D02*
D03*
X320657Y374500D02*
D03*
X505657Y385500D02*
D03*
D42*
X432500Y375500D02*
D03*
X392500D02*
D03*
X395000Y399500D02*
D03*
X355000D02*
D03*
D43*
X396091Y422500D02*
D03*
X490000Y473000D02*
D03*
X502000D02*
D03*
X514000D02*
D03*
D44*
X354909Y422500D02*
D03*
D45*
X516894Y356512D02*
D03*
D46*
Y361512D02*
D03*
Y366512D02*
D03*
D47*
X530500Y275996D02*
D03*
X530709Y479528D02*
D03*
X319921Y275996D02*
D03*
X320079Y479528D02*
D03*
D48*
X516500Y448500D02*
D03*
D49*
X526500D02*
D03*
D50*
X361000Y389342D02*
D03*
Y379500D02*
D03*
X472500Y378500D02*
D03*
Y388342D02*
D03*
D51*
X340158Y461811D02*
D03*
X338976Y296063D02*
D03*
X457874Y387795D02*
D03*
X397244Y287008D02*
D03*
X527894Y355287D02*
D03*
X530500Y340760D02*
D03*
X401154Y281496D02*
D03*
X364252Y306445D02*
D03*
Y286457D02*
D03*
X417717Y303150D02*
D03*
X428731Y302353D02*
D03*
X466929Y307480D02*
D03*
X456284Y301560D02*
D03*
X452344Y301557D02*
D03*
X482283Y285433D02*
D03*
X462730Y379000D02*
D03*
X454500Y377500D02*
D03*
X517894Y376012D02*
D03*
X456000Y401000D02*
D03*
X423000D02*
D03*
X415000Y396000D02*
D03*
X320657Y398000D02*
D03*
X492000Y369000D02*
D03*
X500894Y369512D02*
D03*
M02*
