M48
;Layer_Color=9474304
;FILE_FORMAT=2:5
INCH,TZ
;TYPE=PLATED
T1F00S00C0.01181
T2F00S00C0.02362
T3F00S00C0.03150
T4F00S00C0.03543
T5F00S00C0.03937
T6F00S00C0.04724
T7F00S00C0.08268
%
T01
X484398Y282913
X481890Y292126
X478740Y303543
X474004Y310346
X464173Y306299
X460630
X449213Y303543
X449212Y299606
X446457Y292126
X462184
X414961Y293307
X406693Y299606
X388954Y282913
X397441Y361886
X382874Y376453
X386221Y394563
X371654Y388264
X340945Y385114
X430692Y386689
X433465
X437008
Y390945
Y394094
X433465
Y390945
X429921
Y394094
X426772Y394094
X426752Y390945
X455000Y362992
X470744Y365748
X486614Y355512
X496510Y366982
X506593Y368503
Y359448
X529625Y368503
X526846Y378150
X521260Y386713
X504933Y396457
X516337Y412598
X524409Y412598
X529748Y409622
X531102Y405905
X543688Y420866
X538520Y436614
X529331Y432873
X524409Y429134
X523019Y441535
X524803Y462598
X495669Y454212
Y450862
Y448032
X492126
Y450862
X488976
Y448032
X485827
Y450862
Y454212
X488976
X492126
X488090Y425591
X501968Y427323
X501969Y430854
X514173Y420866
X554724Y436614
Y446653
X559055Y448032
T02
X358898Y317717
X368898
X378898
X388898
X398898
X408898
X418898
X428898
X452677
X462677
Y347638
X452677
X428898
X418898
X408898
X398898
X388898
X378898
X368898
X358898
X472677
X482677
X492677
X502677
X512677
X522677
Y317717
X512677
X502677
X492677
X482677
X472677
T03
X543819Y363622
Y373622
Y383622
X553819
Y373622
Y363622
X551968Y403150
X541968
T04
X525039Y478740
X535039
T05
X405512Y450862
X444882
X485055Y481102
X497055
X509055
T06
X395354Y421728
X405354
X415354
T07
X555118Y275591
X319921Y275996
X553937Y479921
X320079Y479528
M30
