G04*
G04 #@! TF.GenerationSoftware,Altium Limited,Altium Designer,19.1.5 (86)*
G04*
G04 Layer_Physical_Order=1*
G04 Layer_Color=852479*
%FSLAX25Y25*%
%MOIN*%
G70*
G01*
G75*
%ADD14C,0.01000*%
%ADD45R,0.02360X0.07100*%
%ADD46R,0.08700X0.09800*%
%ADD47R,0.11417X0.11417*%
%ADD48R,0.13780X0.09055*%
%ADD49R,0.05709X0.04528*%
%ADD50R,0.05787X0.01102*%
%ADD51R,0.01102X0.05787*%
%ADD52R,0.04528X0.05709*%
%ADD53R,0.08465X0.03937*%
%ADD54R,0.08465X0.12795*%
%ADD55R,0.04331X0.05315*%
%ADD56R,0.04134X0.05512*%
%ADD57R,0.04921X0.12795*%
%ADD58R,0.03543X0.04331*%
%ADD59R,0.03543X0.05512*%
%ADD60R,0.07087X0.11417*%
%ADD61R,0.07087X0.16732*%
%ADD62O,0.07480X0.02362*%
%ADD63R,0.12205X0.07480*%
%ADD64C,0.02362*%
%ADD65C,0.03150*%
%ADD66R,0.05906X0.05906*%
%ADD67C,0.05906*%
%ADD68C,0.07874*%
%ADD69C,0.07087*%
%ADD70R,0.07087X0.07087*%
%ADD71R,0.07087X0.07087*%
%ADD72O,0.07874X0.09449*%
%ADD73O,0.04724X0.09843*%
%ADD74R,0.04724X0.09843*%
%ADD75C,0.11811*%
%ADD76C,0.02362*%
G36*
X411503Y460000D02*
X411854Y459643D01*
X411525Y440551D01*
X410039D01*
X409666Y416142D01*
X409273Y415748D01*
X401005D01*
Y440551D01*
X386221D01*
Y460000D01*
X411503Y460000D01*
D02*
G37*
G36*
X440158Y415748D02*
X418898D01*
Y406761D01*
X410880Y406761D01*
Y415748D01*
X410827D01*
Y428346D01*
X440158D01*
X440158Y415748D01*
D02*
G37*
G36*
X400008Y406656D02*
X399658Y406299D01*
X387661Y406299D01*
X387470Y406761D01*
X387795Y407087D01*
Y428740D01*
X399606D01*
X400008Y406656D01*
D02*
G37*
G36*
X334252Y426378D02*
X340945D01*
X346850Y420472D01*
Y401575D01*
X331177D01*
X331102Y401650D01*
Y369685D01*
X312825D01*
Y457480D01*
X334252D01*
Y426378D01*
D02*
G37*
G36*
X438976Y383465D02*
X424409D01*
Y396063D01*
X424016Y396457D01*
X410236D01*
Y404724D01*
X438976D01*
Y383465D01*
D02*
G37*
G36*
X466467Y456231D02*
X466124Y455888D01*
Y367073D01*
X465617Y366973D01*
X465187Y366685D01*
X464249Y365748D01*
X449213D01*
Y423818D01*
X440158Y432873D01*
Y456693D01*
X466276D01*
X466467Y456231D01*
D02*
G37*
D14*
X477559Y307480D02*
Y368170D01*
X474004Y303925D02*
X477559Y307480D01*
X474004Y292913D02*
Y303925D01*
X547362Y424803D02*
X551968Y420196D01*
X542278Y424803D02*
X547362D01*
X551968Y403150D02*
Y420196D01*
X555315Y429528D02*
X557079Y427764D01*
Y399682D02*
Y427764D01*
X553819Y396423D02*
X557079Y399682D01*
X529723Y445232D02*
X542031Y432925D01*
X526846Y378396D02*
X548593D01*
X553819Y383622D01*
X399213Y330709D02*
X403937Y325984D01*
Y310433D02*
Y325984D01*
Y310433D02*
X417244Y297126D01*
X378329Y330709D02*
X399213D01*
X363459Y345579D02*
X378329Y330709D01*
X553819Y383622D02*
Y396423D01*
X529774Y417761D02*
X532641Y414894D01*
Y407813D02*
Y414894D01*
X531102Y406274D02*
X532641Y407813D01*
X531102Y405905D02*
Y406274D01*
X527806Y417238D02*
X529748Y415295D01*
Y415295D01*
Y409622D02*
Y415295D01*
X526818Y408512D02*
Y415921D01*
X525786Y441295D02*
X542278Y424803D01*
X525786Y441295D02*
Y454212D01*
X528149Y432873D02*
X529331D01*
X524409Y429134D02*
X528149Y432873D01*
X554724Y429528D02*
X555315D01*
X548654Y458236D02*
X558956Y447933D01*
X529774Y417761D02*
Y421326D01*
X529723Y421377D02*
X529774Y421326D01*
X527806Y417238D02*
Y421326D01*
X527755Y421377D02*
X527806Y421326D01*
X486614Y355512D02*
Y368308D01*
X526818Y408512D01*
X472032Y373697D02*
X477559Y368170D01*
X525837Y416901D02*
X526818Y415921D01*
X516337Y412598D02*
Y413440D01*
X398898Y345054D02*
X398923D01*
X525837Y416901D02*
Y421326D01*
X525786Y421377D02*
X525837Y421326D01*
X516472Y425528D02*
X522742D01*
X514122Y423177D02*
X516472Y425528D01*
X513216Y423177D02*
X514122D01*
X504933Y396457D02*
Y414894D01*
X513216Y423177D01*
X522742Y425528D02*
X523766Y424503D01*
Y421429D02*
Y424503D01*
Y421429D02*
X523818Y421377D01*
X504933Y425012D02*
X506889Y426968D01*
X512322D01*
X495981Y425012D02*
X504933D01*
X495403Y425591D02*
X495981Y425012D01*
X488090Y425591D02*
X495403D01*
X502138Y427323D02*
X503752Y428936D01*
X512322D01*
X501968Y427323D02*
X502138D01*
X466124Y365748D02*
X470744D01*
X459824Y359448D02*
X466124Y365748D01*
X448031Y359448D02*
X459824D01*
X515610Y421127D02*
X515861Y421377D01*
X514434Y421127D02*
X515610D01*
X514173Y420866D02*
X514434Y421127D01*
X515861Y421377D02*
X517912D01*
X445276Y356693D02*
X448031Y359448D01*
X445276Y346864D02*
Y356693D01*
X434632Y336221D02*
X445276Y346864D01*
X407756Y336221D02*
X434632D01*
X408898Y350197D02*
X421693Y362992D01*
X455000D01*
X398923Y345054D02*
X407756Y336221D01*
X398898Y345054D02*
Y347638D01*
X501969Y430854D02*
X512270D01*
X501969Y430854D02*
X501969Y430854D01*
X512270D02*
X512322Y430905D01*
X408898Y347638D02*
Y350197D01*
X473289Y310346D02*
X474004D01*
X459874Y296931D02*
X473289Y310346D01*
X459874Y296914D02*
Y296931D01*
X458244Y295283D02*
X459874Y296914D01*
X458244Y292913D02*
Y295283D01*
X455000Y293583D02*
Y297126D01*
X454331Y292913D02*
X455000Y293583D01*
Y297126D02*
X464173Y306299D01*
X450391Y296060D02*
X460630Y306299D01*
X450391Y292913D02*
Y296060D01*
X457310Y306247D02*
X461409Y310346D01*
X467866D01*
X472677Y315158D01*
Y317717D01*
X440092Y306247D02*
X457310D01*
X452585Y308268D02*
X458815Y314497D01*
X460957D01*
X462677Y316218D01*
Y317717D01*
X438172Y308268D02*
X452585D01*
X434632Y300787D02*
X440092Y306247D01*
X430692Y300787D02*
X438172Y308268D01*
X443764Y303543D02*
X449213D01*
X438571Y298351D02*
X443764Y303543D01*
X438571Y292913D02*
Y298351D01*
X443767Y299606D02*
X449212D01*
X442511Y298351D02*
X443767Y299606D01*
X442511Y292913D02*
Y298351D01*
X478740Y303543D02*
X488504D01*
X502677Y317717D01*
X434632Y292913D02*
Y300787D01*
X430692Y292913D02*
Y300787D01*
X470064Y292913D02*
X470744Y292233D01*
Y289845D02*
Y292233D01*
Y289845D02*
X473276Y287313D01*
X480374D01*
X484224Y283463D01*
Y282913D02*
Y283463D01*
X426752Y292913D02*
Y299606D01*
X428898Y301752D01*
Y317717D01*
X422812Y292913D02*
Y300787D01*
X418898Y304702D02*
X422812Y300787D01*
X418898Y304702D02*
Y317717D01*
X417244Y296912D02*
Y297126D01*
Y296912D02*
X418872Y295283D01*
Y292913D02*
Y295283D01*
X360618Y345579D02*
X363459D01*
X358898Y347299D02*
X360618Y345579D01*
X358898Y347299D02*
Y347638D01*
X385787Y308268D02*
X390147D01*
X378898Y315158D02*
X385787Y308268D01*
X394322Y292913D02*
X399174D01*
X372760Y314475D02*
X394322Y292913D01*
X370618Y314475D02*
X372760D01*
X368898Y316196D02*
X370618Y314475D01*
X368898Y316196D02*
Y317717D01*
X378898Y315158D02*
Y317717D01*
X390147Y308268D02*
X401484Y296931D01*
Y296914D02*
Y296931D01*
Y296914D02*
X403114Y295283D01*
Y292913D02*
Y295283D01*
X406693Y299606D02*
X406873Y299426D01*
Y293094D02*
Y299426D01*
Y293094D02*
X407054Y292913D01*
X410994D02*
Y298669D01*
X398898Y310765D02*
X410994Y298669D01*
X398898Y310765D02*
Y317717D01*
X524409Y412598D02*
Y413189D01*
X521849Y415749D02*
X524409Y413189D01*
X521849Y415749D02*
Y421377D01*
X516337Y413440D02*
X519881Y416984D01*
Y421377D01*
X529723Y445232D02*
Y454212D01*
X542031Y432925D02*
X545105D01*
X545156Y432873D01*
X523268Y448072D02*
X523818Y448621D01*
Y454212D01*
X523019Y441535D02*
X523268Y448072D01*
X532641Y458236D02*
X548654D01*
X531743Y457337D02*
X532641Y458236D01*
X531743Y454263D02*
Y457337D01*
X531692Y454212D02*
X531743Y454263D01*
X550788Y432873D02*
X554134Y429528D01*
X545156Y432873D02*
X550788D01*
X552961Y434850D02*
X554724Y436614D01*
X545165Y434850D02*
X552961D01*
X545156Y434842D02*
X545165Y434850D01*
X531890Y462008D02*
Y462598D01*
X529723Y459841D02*
X531890Y462008D01*
X529723Y454212D02*
Y459841D01*
X527703Y454263D02*
Y459108D01*
X524803Y462008D02*
X527703Y459108D01*
X524803Y462008D02*
Y462598D01*
X527703Y454263D02*
X527755Y454212D01*
X521260Y386417D02*
Y387008D01*
X484398Y350516D02*
X486539D01*
X482677Y348795D02*
X484398Y350516D01*
X482677Y347638D02*
Y348795D01*
X486539Y350516D02*
X495866Y359843D01*
X496457D01*
X496851Y359448D02*
X506593D01*
X496457Y359843D02*
X496851Y359448D01*
X505125Y367035D02*
X506593Y368503D01*
X496562Y367035D02*
X505125D01*
X496457Y366929D02*
X496562Y367035D01*
X454921Y373697D02*
X472032D01*
X403354Y363453D02*
X404921Y361886D01*
X403354Y363453D02*
Y366799D01*
X396744Y373409D02*
X403354Y366799D01*
X396744Y373409D02*
Y373697D01*
X395472Y374969D02*
X396744Y373697D01*
X395472Y374969D02*
Y375665D01*
X402362Y382555D02*
X408465D01*
X397728Y377921D02*
X402362Y382555D01*
X396744Y377921D02*
X397728D01*
X395472Y376649D02*
X396744Y377921D01*
X395472Y375665D02*
Y376649D01*
X418268Y368776D02*
X423189Y373697D01*
X408465Y368776D02*
X418268D01*
X423189Y373697D02*
X431693D01*
X398819Y398067D02*
X423189Y373697D01*
X396260Y398067D02*
X398819D01*
X394830Y393067D02*
X396260D01*
X394201Y392438D02*
X394830Y393067D01*
X394201Y389453D02*
Y392438D01*
X389567Y384819D02*
X394201Y389453D01*
X389567Y384327D02*
Y384819D01*
Y376453D02*
Y384327D01*
X415253Y387357D02*
Y392578D01*
Y387357D02*
X415921Y386689D01*
X414764Y393067D02*
X415253Y392578D01*
X415921Y386689D02*
X419685D01*
D45*
X454331Y292913D02*
D03*
X450391D02*
D03*
X446451D02*
D03*
X442511D02*
D03*
X438571D02*
D03*
X418872D02*
D03*
X422812D02*
D03*
X426752D02*
D03*
X430692D02*
D03*
X434632D02*
D03*
X474004D02*
D03*
X470064D02*
D03*
X466124D02*
D03*
X462184D02*
D03*
X458244D02*
D03*
X414934D02*
D03*
X410994D02*
D03*
X407054D02*
D03*
X403114D02*
D03*
X399174D02*
D03*
D46*
X484224Y282913D02*
D03*
X388954D02*
D03*
D47*
X333071Y450862D02*
D03*
X393583D02*
D03*
D48*
X491240D02*
D03*
X457579D02*
D03*
D49*
X554724Y436614D02*
D03*
Y429528D02*
D03*
X386221Y394563D02*
D03*
Y401650D02*
D03*
X496457Y366929D02*
D03*
Y359843D02*
D03*
D50*
X512322Y448621D02*
D03*
Y446653D02*
D03*
Y444684D02*
D03*
Y442716D02*
D03*
Y440747D02*
D03*
Y438779D02*
D03*
Y436810D02*
D03*
Y434842D02*
D03*
Y432873D02*
D03*
Y430905D02*
D03*
Y428936D02*
D03*
Y426968D02*
D03*
X545156D02*
D03*
Y428936D02*
D03*
Y430905D02*
D03*
Y432873D02*
D03*
Y434842D02*
D03*
Y436810D02*
D03*
Y438779D02*
D03*
Y440747D02*
D03*
Y442716D02*
D03*
Y444684D02*
D03*
Y446653D02*
D03*
Y448621D02*
D03*
D51*
X517912Y421377D02*
D03*
X519881D02*
D03*
X521849D02*
D03*
X523818D02*
D03*
X525786D02*
D03*
X527755D02*
D03*
X529723D02*
D03*
X531692D02*
D03*
X533660D02*
D03*
X535629D02*
D03*
X537597D02*
D03*
X539566D02*
D03*
Y454212D02*
D03*
X537597D02*
D03*
X535629D02*
D03*
X533660D02*
D03*
X531692D02*
D03*
X529723D02*
D03*
X527755D02*
D03*
X525786D02*
D03*
X523818D02*
D03*
X521849D02*
D03*
X519881D02*
D03*
X517912D02*
D03*
D52*
X524803Y462598D02*
D03*
X531890D02*
D03*
X523424Y412598D02*
D03*
X516337D02*
D03*
X419685Y386689D02*
D03*
X426772D02*
D03*
X521260Y387008D02*
D03*
X514173D02*
D03*
D53*
X506593Y377558D02*
D03*
Y368503D02*
D03*
Y359448D02*
D03*
D54*
X529625Y368503D02*
D03*
D55*
X389567Y376453D02*
D03*
X382874D02*
D03*
Y384327D02*
D03*
X389567D02*
D03*
D56*
X397441Y361886D02*
D03*
X404921D02*
D03*
D57*
X431693Y373697D02*
D03*
X454921D02*
D03*
D58*
X408465Y382555D02*
D03*
Y368776D02*
D03*
D59*
X395472Y375665D02*
D03*
D60*
X371654Y388264D02*
D03*
Y404012D02*
D03*
D61*
X340945Y385114D02*
D03*
Y411886D02*
D03*
D62*
X396260Y408067D02*
D03*
Y403067D02*
D03*
Y398067D02*
D03*
Y393067D02*
D03*
X414764Y408067D02*
D03*
Y403067D02*
D03*
Y398067D02*
D03*
Y393067D02*
D03*
D63*
X432284Y400567D02*
D03*
Y421630D02*
D03*
D64*
X543688Y404869D02*
Y420866D01*
X541968Y403150D02*
X543688Y404869D01*
X561811Y340158D02*
Y439566D01*
X554724Y446653D02*
X561811Y439566D01*
Y315748D02*
Y340158D01*
X542126D02*
X561811D01*
X517912Y364371D02*
X542126Y340158D01*
X517912Y364371D02*
Y374702D01*
X513587Y379027D02*
X517912Y374702D01*
X538189Y292126D02*
X561811Y315748D01*
X481890Y292126D02*
X538189D01*
X513587Y379027D02*
X514173Y379612D01*
Y387008D01*
X508062Y379027D02*
X513587D01*
X506593Y377558D02*
X508062Y379027D01*
X380118Y401650D02*
X386221D01*
X374016D02*
X380118D01*
X379921Y401453D02*
X380118Y401650D01*
X379921Y387772D02*
Y401453D01*
Y387772D02*
X382874Y384819D01*
Y384327D02*
Y384819D01*
X321654Y288189D02*
Y369685D01*
Y288189D02*
X338994Y270848D01*
X465538D01*
X466124Y271434D01*
Y292913D01*
X366602Y404020D02*
X366610Y404012D01*
X343988Y404020D02*
X366602D01*
X340945Y407063D02*
X343988Y404020D01*
X340945Y407063D02*
Y411886D01*
X366610Y404012D02*
X371654D01*
X374016Y401650D01*
X386221D02*
X387638Y403067D01*
X396260D01*
D65*
X504535Y473622D02*
X519921D01*
X525039Y478740D01*
X497055Y481102D02*
X504535Y473622D01*
D66*
X535039Y478740D02*
D03*
D67*
X525039D02*
D03*
D68*
X444882Y450862D02*
D03*
X405512D02*
D03*
X485055Y481102D02*
D03*
X497055D02*
D03*
X509055D02*
D03*
D69*
X551968Y403150D02*
D03*
X543819Y373622D02*
D03*
X553819Y383622D02*
D03*
Y373622D02*
D03*
X543819Y363622D02*
D03*
X553819D02*
D03*
D70*
X541968Y403150D02*
D03*
D71*
X543819Y383622D02*
D03*
D72*
X395354Y421728D02*
D03*
X405354D02*
D03*
X415354D02*
D03*
D73*
X358898Y317717D02*
D03*
X368898D02*
D03*
X378898D02*
D03*
X388898D02*
D03*
X398898D02*
D03*
X408898D02*
D03*
X418898D02*
D03*
X428898D02*
D03*
X358898Y347638D02*
D03*
X368898D02*
D03*
X378898D02*
D03*
X388898D02*
D03*
X398898D02*
D03*
X408898D02*
D03*
X418898D02*
D03*
X452677Y317717D02*
D03*
X462677D02*
D03*
X472677D02*
D03*
X482677D02*
D03*
X492677D02*
D03*
X502677D02*
D03*
X512677D02*
D03*
X522677D02*
D03*
X452677Y347638D02*
D03*
X462677D02*
D03*
X472677D02*
D03*
X482677D02*
D03*
X492677D02*
D03*
X502677D02*
D03*
X512677D02*
D03*
D74*
X428898D02*
D03*
X522677D02*
D03*
D75*
X555118Y275591D02*
D03*
X553937Y479921D02*
D03*
X319921Y275996D02*
D03*
X320079Y479528D02*
D03*
D76*
X526846Y378150D02*
D03*
X506593Y359448D02*
D03*
X554724Y446653D02*
D03*
X462184Y292126D02*
D03*
X481890D02*
D03*
X531102Y405905D02*
D03*
X529748Y409622D02*
D03*
X538520Y436614D02*
D03*
X529331Y432873D02*
D03*
X524409Y429134D02*
D03*
X559055Y448032D02*
D03*
X486614Y355512D02*
D03*
X516337Y412598D02*
D03*
X524409Y412598D02*
D03*
X504933Y396457D02*
D03*
X488090Y425591D02*
D03*
X501968Y427323D02*
D03*
X429921Y390945D02*
D03*
Y394094D02*
D03*
X426772Y394094D02*
D03*
X426752Y390945D02*
D03*
X433465Y394094D02*
D03*
Y390945D02*
D03*
X437008D02*
D03*
Y394094D02*
D03*
X430692Y386689D02*
D03*
X433465D02*
D03*
X437008D02*
D03*
X514173Y420866D02*
D03*
X470744Y365748D02*
D03*
X455000Y362992D02*
D03*
X501969Y430854D02*
D03*
X474004Y310346D02*
D03*
X464173Y306299D02*
D03*
X460630D02*
D03*
X449213Y303543D02*
D03*
X449212Y299606D02*
D03*
X478740Y303543D02*
D03*
X446457Y292126D02*
D03*
X484398Y282913D02*
D03*
X388954D02*
D03*
X414961Y293307D02*
D03*
X406693Y299606D02*
D03*
X523019Y441535D02*
D03*
X543688Y420866D02*
D03*
X524803Y462598D02*
D03*
X554724Y436614D02*
D03*
X521260Y386713D02*
D03*
X496510Y366982D02*
D03*
X506593Y368503D02*
D03*
X529625D02*
D03*
X340945Y385114D02*
D03*
X386221Y394563D02*
D03*
X371654Y388264D02*
D03*
X382874Y376453D02*
D03*
X397441Y361886D02*
D03*
X495669Y454212D02*
D03*
X492126D02*
D03*
X488976D02*
D03*
X485827D02*
D03*
Y450862D02*
D03*
X488976D02*
D03*
X492126D02*
D03*
X495669D02*
D03*
Y448032D02*
D03*
X492126D02*
D03*
X488976D02*
D03*
X485827D02*
D03*
M02*
