G04*
G04 #@! TF.GenerationSoftware,Altium Limited,Altium Designer,18.1.7 (191)*
G04*
G04 Layer_Physical_Order=2*
G04 Layer_Color=16711680*
%FSLAX25Y25*%
%MOIN*%
G70*
G01*
G75*
%ADD13C,0.01000*%
%ADD53O,0.04724X0.09843*%
%ADD54R,0.04724X0.09843*%
%ADD55C,0.05512*%
%ADD56C,0.07874*%
%ADD57R,0.07874X0.07874*%
%ADD58R,0.07874X0.03937*%
%ADD59O,0.07874X0.03937*%
%ADD60C,0.11811*%
%ADD61C,0.05906*%
%ADD62R,0.05906X0.05906*%
%ADD63C,0.04724*%
%ADD64C,0.02362*%
D13*
X483465Y355512D02*
X505118Y377165D01*
X483465Y346063D02*
Y355512D01*
X505118Y377165D02*
X508192D01*
X336500Y472500D02*
X486500D01*
X315000Y451000D02*
X336500Y472500D01*
X340158Y461811D02*
X405969Y396000D01*
X415000D01*
X325197Y309842D02*
X338976Y296063D01*
X325197Y309842D02*
Y322047D01*
X331890Y328740D01*
X381496D01*
X389500Y336744D01*
Y360842D01*
X411024Y309842D02*
X417717Y303150D01*
X340551Y309842D02*
X411024D01*
X334252Y316142D02*
X340551Y309842D01*
X373421Y356500D02*
X384500Y345421D01*
X425984Y355906D02*
X457874Y387795D01*
X425984Y314173D02*
Y355906D01*
Y314173D02*
X433071Y307087D01*
Y300787D02*
Y307087D01*
X419291Y287008D02*
X433071Y300787D01*
X397244Y287008D02*
X419291D01*
X527894Y343366D02*
X530500Y340760D01*
X527894Y343366D02*
Y355287D01*
X455555Y358154D02*
Y362555D01*
X443465Y346063D02*
X455555Y358154D01*
X453465Y346063D02*
Y349465D01*
X508192Y377165D02*
X510500Y379473D01*
X344094Y281496D02*
X401154D01*
X315000Y310591D02*
X344094Y281496D01*
X315000Y310591D02*
Y451000D01*
X364252Y286457D02*
Y306445D01*
X396754Y316142D02*
X402806Y322193D01*
X394252Y316142D02*
X396754D01*
X402806Y322193D02*
X408891D01*
X428731Y302353D01*
X466929Y307480D02*
X480315D01*
X483465Y310630D01*
Y316142D01*
X463465Y307677D02*
Y316142D01*
Y307677D02*
X465972Y305169D01*
X466040D02*
X482283Y288926D01*
X465972Y305169D02*
X466040D01*
X482283Y285433D02*
Y288926D01*
X447638Y310206D02*
X456284Y301560D01*
X446814Y307087D02*
X452344Y301557D01*
X433465Y335039D02*
Y346063D01*
Y335039D02*
X447638Y320866D01*
Y310206D02*
Y320866D01*
X433465Y316142D02*
X442520Y307087D01*
X446814D01*
X500894Y369512D02*
X506012D01*
X515579Y379079D01*
X350322Y356500D02*
X373421D01*
X336480Y370341D02*
X350322Y356500D01*
X456000Y379000D02*
X462730D01*
X454500Y377500D02*
X456000Y379000D01*
X468638Y375638D02*
Y381512D01*
X455555Y362555D02*
X468638Y375638D01*
X510894Y369012D02*
X517894Y376012D01*
X515579Y379079D02*
X526942D01*
X510500Y395500D02*
X531500Y416500D01*
X510500Y379473D02*
Y395500D01*
X423000Y401000D02*
X456000D01*
X320657Y398000D02*
X336480Y382177D01*
Y370341D02*
Y382177D01*
X508910Y404500D02*
X525343Y420933D01*
X453465Y349465D02*
X489500Y385500D01*
X505657D01*
X361000Y389342D02*
X389500Y360842D01*
X531500Y416500D02*
Y425500D01*
X505657Y420933D02*
X514000Y429276D01*
X527724D01*
X531500Y425500D01*
X526500Y433328D02*
Y448500D01*
Y433328D02*
X533500Y426328D01*
Y383374D02*
Y426328D01*
X526942Y379079D02*
X531238Y383374D01*
X533500D01*
X496500Y404500D02*
X508910D01*
X468638Y381512D02*
X470500Y383374D01*
X475374D01*
X496500Y404500D01*
D53*
X433465Y316142D02*
D03*
X443465D02*
D03*
X453465D02*
D03*
X463465D02*
D03*
X473465D02*
D03*
X483465D02*
D03*
X493465D02*
D03*
X503465D02*
D03*
X433465Y346063D02*
D03*
X443465D02*
D03*
X453465D02*
D03*
X463465D02*
D03*
X473465D02*
D03*
X483465D02*
D03*
X493465D02*
D03*
X334252Y316142D02*
D03*
X344252D02*
D03*
X354252D02*
D03*
X364252D02*
D03*
X374252D02*
D03*
X384252D02*
D03*
X394252D02*
D03*
X404252D02*
D03*
X334252Y346063D02*
D03*
X344252D02*
D03*
X354252D02*
D03*
X364252D02*
D03*
X374252D02*
D03*
X384252D02*
D03*
X394252D02*
D03*
X340342Y409933D02*
D03*
X330500D02*
D03*
X320657D02*
D03*
X330500Y374500D02*
D03*
X340342D02*
D03*
X525343Y385500D02*
D03*
X515500D02*
D03*
X505657Y420933D02*
D03*
X515500D02*
D03*
X525343D02*
D03*
D54*
X503465Y346063D02*
D03*
X404252D02*
D03*
X320657Y374500D02*
D03*
X505657Y385500D02*
D03*
D55*
X432500Y375500D02*
D03*
X392500D02*
D03*
X395000Y399500D02*
D03*
X355000D02*
D03*
D56*
X396091Y422500D02*
D03*
X490000Y473000D02*
D03*
X502000D02*
D03*
X514000D02*
D03*
D57*
X354909Y422500D02*
D03*
D58*
X516894Y356512D02*
D03*
D59*
Y361512D02*
D03*
Y366512D02*
D03*
D60*
X530500Y275996D02*
D03*
X530709Y479528D02*
D03*
X319921Y275996D02*
D03*
X320079Y479528D02*
D03*
D61*
X516500Y448500D02*
D03*
D62*
X526500D02*
D03*
D63*
X361000Y389342D02*
D03*
Y379500D02*
D03*
X472500Y378500D02*
D03*
Y388342D02*
D03*
D64*
X340158Y461811D02*
D03*
X338976Y296063D02*
D03*
X457874Y387795D02*
D03*
X397244Y287008D02*
D03*
X527894Y355287D02*
D03*
X530500Y340760D02*
D03*
X401154Y281496D02*
D03*
X364252Y306445D02*
D03*
Y286457D02*
D03*
X417717Y303150D02*
D03*
X428731Y302353D02*
D03*
X466929Y307480D02*
D03*
X456284Y301560D02*
D03*
X452344Y301557D02*
D03*
X482283Y285433D02*
D03*
X462730Y379000D02*
D03*
X454500Y377500D02*
D03*
X517894Y376012D02*
D03*
X456000Y401000D02*
D03*
X423000D02*
D03*
X415000Y396000D02*
D03*
X320657Y398000D02*
D03*
X492000Y369000D02*
D03*
X500894Y369512D02*
D03*
M02*
