G04*
G04 #@! TF.GenerationSoftware,Altium Limited,Altium Designer,18.1.7 (191)*
G04*
G04 Layer_Physical_Order=2*
G04 Layer_Color=16711680*
%FSLAX25Y25*%
%MOIN*%
G70*
G01*
G75*
%ADD10C,0.01000*%
%ADD21C,0.05512*%
%ADD22C,0.10000*%
%ADD23C,0.19685*%
%ADD24C,0.11811*%
%ADD25C,0.02362*%
D10*
X400000Y266500D02*
Y288000D01*
X395000Y261500D02*
X400000Y266500D01*
X379500Y261500D02*
X395000D01*
X358222Y240222D02*
X379500Y261500D01*
X354880Y240222D02*
X358222D01*
X387500Y294000D02*
X403500Y310000D01*
X372500Y294000D02*
X387500D01*
X357000Y278500D02*
X372500Y294000D01*
X357000Y267500D02*
Y278500D01*
X348256Y258756D02*
X357000Y267500D01*
X348256Y253283D02*
Y258756D01*
X363013Y324500D02*
X391751D01*
X348256Y309743D02*
X363013Y324500D01*
X348256Y288717D02*
Y309743D01*
X374102Y321000D02*
X387628D01*
X354880Y301778D02*
X374102Y321000D01*
X388877Y315500D02*
X399422D01*
X379092Y305715D02*
X388877Y315500D01*
X370628Y305715D02*
X379092D01*
X441000Y241842D02*
Y278000D01*
X439381Y240222D02*
X441000Y241842D01*
X411000Y292242D02*
X420742Y282500D01*
X411000Y292242D02*
Y329000D01*
X420742Y282500D02*
X465250D01*
X476751Y271000D01*
X415000Y328000D02*
X421792D01*
X422043Y328251D01*
X444404D01*
X470877Y301778D01*
X423000Y298474D02*
Y325940D01*
Y298474D02*
X432757Y288717D01*
X435344Y325500D02*
X455128Y305715D01*
X430940Y325500D02*
X435344D01*
X343000Y211500D02*
X483500D01*
D21*
X361000Y216000D02*
D03*
X401000D02*
D03*
X429000Y217000D02*
D03*
X469000D02*
D03*
D22*
X370628Y305715D02*
D03*
X392250Y271000D02*
D03*
X391751Y288717D02*
D03*
X370628Y236285D02*
D03*
X391751Y253283D02*
D03*
X386377Y240222D02*
D03*
Y301778D02*
D03*
X354880D02*
D03*
X348256Y288717D02*
D03*
X347757Y271000D02*
D03*
X348256Y253283D02*
D03*
X354880Y240222D02*
D03*
X455128Y305715D02*
D03*
X476751Y271000D02*
D03*
X476251Y288717D02*
D03*
X455128Y236285D02*
D03*
X476251Y253283D02*
D03*
X470877Y240222D02*
D03*
Y301778D02*
D03*
X439381D02*
D03*
X432757Y288717D02*
D03*
X432257Y271000D02*
D03*
X432757Y253283D02*
D03*
X439381Y240222D02*
D03*
D23*
X371879Y271000D02*
D03*
X456379D02*
D03*
D24*
X483500Y363000D02*
D03*
X343000D02*
D03*
Y211500D02*
D03*
X483500D02*
D03*
D25*
X400000Y288000D02*
D03*
X403500Y310000D02*
D03*
X391751Y324500D02*
D03*
X387628Y321000D02*
D03*
X399422Y315500D02*
D03*
X441000Y278000D02*
D03*
X411000Y329000D02*
D03*
X415000Y328000D02*
D03*
X423000Y325940D02*
D03*
X430940Y325500D02*
D03*
M02*
