G04*
G04 #@! TF.GenerationSoftware,Altium Limited,Altium Designer,18.1.7 (191)*
G04*
G04 Layer_Color=65535*
%FSLAX25Y25*%
%MOIN*%
G70*
G01*
G75*
%ADD10C,0.01000*%
%ADD11C,0.00787*%
G36*
X341281Y328475D02*
X341331Y328469D01*
X341388Y328456D01*
X341450Y328444D01*
X341519Y328425D01*
X341587Y328400D01*
X341663Y328369D01*
X341738Y328331D01*
X341812Y328288D01*
X341887Y328231D01*
X341963Y328169D01*
X342031Y328100D01*
X342094Y328019D01*
X342100Y328012D01*
X342106Y328000D01*
X342125Y327969D01*
X342144Y327938D01*
X342169Y327888D01*
X342200Y327831D01*
X342231Y327769D01*
X342263Y327694D01*
X342287Y327606D01*
X342319Y327513D01*
X342350Y327413D01*
X342375Y327300D01*
X342394Y327181D01*
X342412Y327056D01*
X342419Y326925D01*
X342425Y326781D01*
Y326769D01*
Y326744D01*
Y326700D01*
X342419Y326644D01*
X342412Y326569D01*
X342406Y326487D01*
X342394Y326394D01*
X342375Y326294D01*
X342325Y326081D01*
X342294Y325969D01*
X342256Y325856D01*
X342206Y325744D01*
X342150Y325631D01*
X342088Y325531D01*
X342019Y325431D01*
X342013Y325425D01*
X342000Y325413D01*
X341975Y325388D01*
X341944Y325356D01*
X341906Y325312D01*
X341856Y325275D01*
X341800Y325225D01*
X341738Y325181D01*
X341669Y325137D01*
X341587Y325087D01*
X341506Y325050D01*
X341412Y325012D01*
X341319Y324975D01*
X341219Y324950D01*
X341106Y324938D01*
X340994Y324931D01*
X340950D01*
X340900Y324938D01*
X340844D01*
X340769Y324944D01*
X340694Y324956D01*
X340544Y324988D01*
X340538D01*
X340512Y325000D01*
X340475Y325012D01*
X340425Y325031D01*
X340363Y325056D01*
X340294Y325087D01*
X340150Y325163D01*
Y323750D01*
X339581D01*
Y328387D01*
X340150D01*
Y328031D01*
X340162Y328038D01*
X340188Y328063D01*
X340231Y328100D01*
X340287Y328144D01*
X340356Y328194D01*
X340438Y328244D01*
X340525Y328300D01*
X340619Y328350D01*
X340631Y328356D01*
X340663Y328369D01*
X340719Y328394D01*
X340788Y328419D01*
X340875Y328437D01*
X340969Y328463D01*
X341075Y328475D01*
X341188Y328481D01*
X341244D01*
X341281Y328475D01*
D02*
G37*
G36*
X365844Y325000D02*
X365194D01*
X363644Y329519D01*
X364281Y329519D01*
X365531Y325769D01*
X366781Y329519D01*
X367400D01*
X365844Y325000D01*
D02*
G37*
G36*
X338762Y326694D02*
Y326688D01*
Y326675D01*
Y326650D01*
Y326612D01*
Y326575D01*
X338756Y326525D01*
X338750Y326419D01*
X338738Y326294D01*
X338719Y326156D01*
X338694Y326019D01*
X338663Y325887D01*
Y325881D01*
X338656Y325875D01*
X338650Y325856D01*
X338644Y325831D01*
X338619Y325769D01*
X338587Y325688D01*
X338544Y325600D01*
X338481Y325506D01*
X338412Y325413D01*
X338331Y325319D01*
X338319Y325312D01*
X338294Y325288D01*
X338250Y325250D01*
X338188Y325200D01*
X338112Y325150D01*
X338025Y325100D01*
X337931Y325050D01*
X337825Y325006D01*
X337812Y325000D01*
X337775Y324994D01*
X337713Y324975D01*
X337631Y324956D01*
X337531Y324938D01*
X337413Y324925D01*
X337275Y324913D01*
X337125Y324906D01*
X337056D01*
X337025Y324913D01*
X336987D01*
X336894Y324919D01*
X336781Y324931D01*
X336669Y324950D01*
X336550Y324975D01*
X336431Y325006D01*
X336425D01*
X336419Y325012D01*
X336381Y325025D01*
X336325Y325050D01*
X336256Y325087D01*
X336181Y325131D01*
X336094Y325181D01*
X336006Y325244D01*
X335925Y325319D01*
X335912Y325331D01*
X335888Y325362D01*
X335844Y325413D01*
X335800Y325481D01*
X335744Y325563D01*
X335687Y325656D01*
X335637Y325763D01*
X335594Y325881D01*
Y325887D01*
X335588Y325894D01*
Y325912D01*
X335581Y325944D01*
X335575Y325975D01*
X335562Y326012D01*
X335550Y326106D01*
X335531Y326225D01*
X335512Y326362D01*
X335506Y326519D01*
X335500Y326694D01*
Y329519D01*
X336100D01*
Y326700D01*
Y326694D01*
Y326688D01*
Y326650D01*
Y326588D01*
X336106Y326519D01*
Y326437D01*
X336119Y326350D01*
X336125Y326256D01*
X336138Y326175D01*
Y326169D01*
X336144Y326137D01*
X336156Y326100D01*
X336169Y326050D01*
X336194Y325988D01*
X336219Y325925D01*
X336256Y325856D01*
X336294Y325794D01*
X336300Y325787D01*
X336319Y325763D01*
X336344Y325731D01*
X336381Y325694D01*
X336425Y325650D01*
X336481Y325600D01*
X336544Y325556D01*
X336619Y325519D01*
X336631Y325513D01*
X336656Y325506D01*
X336700Y325487D01*
X336762Y325475D01*
X336831Y325456D01*
X336919Y325437D01*
X337019Y325431D01*
X337125Y325425D01*
X337175D01*
X337225Y325431D01*
X337294Y325437D01*
X337369Y325450D01*
X337456Y325463D01*
X337544Y325487D01*
X337625Y325519D01*
X337637Y325525D01*
X337663Y325537D01*
X337700Y325556D01*
X337750Y325588D01*
X337806Y325625D01*
X337862Y325675D01*
X337913Y325731D01*
X337963Y325794D01*
X337969Y325800D01*
X337981Y325825D01*
X338000Y325856D01*
X338025Y325906D01*
X338050Y325962D01*
X338075Y326025D01*
X338100Y326094D01*
X338119Y326169D01*
Y326181D01*
X338125Y326206D01*
X338131Y326250D01*
X338144Y326312D01*
X338150Y326388D01*
X338156Y326475D01*
X338162Y326575D01*
Y326688D01*
Y329519D01*
X338762D01*
Y326694D01*
D02*
G37*
G36*
X355175Y329606D02*
X355225Y329600D01*
X355288Y329594D01*
X355356Y329588D01*
X355431Y329569D01*
X355588Y329531D01*
X355750Y329469D01*
X355831Y329431D01*
X355912Y329387D01*
X355988Y329338D01*
X356056Y329275D01*
X356063Y329269D01*
X356075Y329262D01*
X356087Y329238D01*
X356113Y329212D01*
X356137Y329181D01*
X356169Y329137D01*
X356206Y329087D01*
X356238Y329037D01*
X356269Y328975D01*
X356306Y328906D01*
X356337Y328831D01*
X356363Y328750D01*
X356387Y328662D01*
X356406Y328569D01*
X356413Y328469D01*
X356419Y328362D01*
Y328350D01*
Y328319D01*
Y328269D01*
X356413Y328206D01*
X356406Y328131D01*
X356394Y328044D01*
X356356Y327875D01*
Y327863D01*
X356344Y327837D01*
X356331Y327794D01*
X356312Y327737D01*
X356288Y327675D01*
X356256Y327606D01*
X356181Y327463D01*
X356175Y327456D01*
X356163Y327431D01*
X356137Y327387D01*
X356106Y327338D01*
X356069Y327281D01*
X356019Y327213D01*
X355912Y327069D01*
X355906Y327063D01*
X355888Y327038D01*
X355856Y327000D01*
X355813Y326950D01*
X355763Y326894D01*
X355706Y326825D01*
X355581Y326688D01*
Y326681D01*
X355569Y326675D01*
X355550Y326656D01*
X355531Y326631D01*
X355475Y326569D01*
X355394Y326487D01*
X355300Y326394D01*
X355194Y326281D01*
X355069Y326169D01*
X354944Y326044D01*
X354938Y326038D01*
X354931Y326031D01*
X354912Y326012D01*
X354888Y325988D01*
X354825Y325931D01*
X354744Y325856D01*
X354650Y325769D01*
X354556Y325681D01*
X354469Y325600D01*
X354381Y325519D01*
X356606D01*
Y325000D01*
X353819D01*
Y325631D01*
X353825Y325638D01*
X353831Y325644D01*
X353869Y325681D01*
X353925Y325738D01*
X354000Y325806D01*
X354087Y325887D01*
X354181Y325981D01*
X354381Y326175D01*
X354387Y326181D01*
X354394Y326187D01*
X354425Y326219D01*
X354481Y326275D01*
X354550Y326344D01*
X354625Y326425D01*
X354719Y326519D01*
X354813Y326619D01*
X354906Y326725D01*
X354912Y326731D01*
X354931Y326750D01*
X354956Y326781D01*
X354988Y326819D01*
X355031Y326869D01*
X355081Y326925D01*
X355131Y326988D01*
X355188Y327050D01*
X355300Y327194D01*
X355419Y327350D01*
X355525Y327494D01*
X355569Y327569D01*
X355606Y327631D01*
Y327638D01*
X355612Y327650D01*
X355625Y327662D01*
X355638Y327694D01*
X355669Y327756D01*
X355706Y327850D01*
X355737Y327956D01*
X355769Y328075D01*
X355794Y328206D01*
X355800Y328338D01*
Y328344D01*
Y328369D01*
Y328406D01*
X355794Y328450D01*
X355787Y328506D01*
X355775Y328556D01*
X355737Y328669D01*
Y328675D01*
X355725Y328694D01*
X355713Y328719D01*
X355694Y328750D01*
X355644Y328831D01*
X355575Y328906D01*
X355569Y328912D01*
X355556Y328919D01*
X355531Y328938D01*
X355506Y328956D01*
X355469Y328981D01*
X355425Y329006D01*
X355325Y329044D01*
X355319D01*
X355300Y329050D01*
X355275Y329063D01*
X355238Y329069D01*
X355194Y329081D01*
X355144Y329087D01*
X355025Y329094D01*
X354962D01*
X354925Y329087D01*
X354875Y329081D01*
X354819Y329075D01*
X354694Y329050D01*
X354688D01*
X354669Y329044D01*
X354638Y329031D01*
X354594Y329019D01*
X354544Y329006D01*
X354494Y328988D01*
X354381Y328944D01*
X354375D01*
X354356Y328938D01*
X354331Y328925D01*
X354300Y328912D01*
X354219Y328869D01*
X354131Y328819D01*
X354125D01*
X354113Y328806D01*
X354094Y328794D01*
X354069Y328775D01*
X354006Y328737D01*
X353944Y328694D01*
X353912D01*
Y329338D01*
X353919Y329344D01*
X353950Y329356D01*
X353988Y329375D01*
X354050Y329394D01*
X354119Y329425D01*
X354212Y329456D01*
X354312Y329487D01*
X354431Y329519D01*
X354437D01*
X354444Y329525D01*
X354463D01*
X354487Y329531D01*
X354556Y329550D01*
X354638Y329569D01*
X354737Y329581D01*
X354844Y329600D01*
X354956Y329606D01*
X355069Y329612D01*
X355131D01*
X355175Y329606D01*
D02*
G37*
G36*
X348175Y328988D02*
X346656D01*
Y325000D01*
X346056D01*
Y328988D01*
X344537D01*
Y329519D01*
X348175D01*
Y328988D01*
D02*
G37*
G36*
X362037Y329606D02*
X362094D01*
X362150Y329594D01*
X362225Y329581D01*
X362300Y329562D01*
X362387Y329538D01*
X362475Y329506D01*
X362562Y329469D01*
X362656Y329419D01*
X362744Y329363D01*
X362831Y329300D01*
X362913Y329219D01*
X362994Y329131D01*
X363063Y329025D01*
X363069Y329019D01*
X363075Y329000D01*
X363094Y328962D01*
X363119Y328912D01*
X363144Y328850D01*
X363175Y328775D01*
X363206Y328688D01*
X363238Y328581D01*
X363269Y328469D01*
X363300Y328338D01*
X363331Y328187D01*
X363356Y328031D01*
X363381Y327856D01*
X363400Y327669D01*
X363406Y327469D01*
X363412Y327256D01*
Y327250D01*
Y327244D01*
Y327225D01*
Y327206D01*
Y327144D01*
X363406Y327056D01*
X363400Y326956D01*
X363394Y326844D01*
X363381Y326719D01*
X363369Y326581D01*
X363350Y326437D01*
X363325Y326288D01*
X363300Y326137D01*
X363263Y325994D01*
X363219Y325850D01*
X363175Y325712D01*
X363119Y325588D01*
X363056Y325475D01*
X363050Y325469D01*
X363037Y325450D01*
X363019Y325425D01*
X362987Y325388D01*
X362950Y325344D01*
X362906Y325294D01*
X362850Y325244D01*
X362788Y325194D01*
X362713Y325137D01*
X362637Y325087D01*
X362544Y325038D01*
X362450Y324994D01*
X362344Y324956D01*
X362225Y324931D01*
X362100Y324913D01*
X361969Y324906D01*
X361937D01*
X361900Y324913D01*
X361844D01*
X361781Y324925D01*
X361713Y324938D01*
X361637Y324956D01*
X361550Y324981D01*
X361462Y325006D01*
X361369Y325044D01*
X361281Y325094D01*
X361188Y325150D01*
X361100Y325213D01*
X361019Y325294D01*
X360938Y325381D01*
X360869Y325481D01*
X360862Y325487D01*
X360856Y325506D01*
X360838Y325544D01*
X360812Y325594D01*
X360788Y325650D01*
X360763Y325731D01*
X360731Y325819D01*
X360700Y325919D01*
X360663Y326038D01*
X360631Y326169D01*
X360606Y326319D01*
X360581Y326475D01*
X360556Y326650D01*
X360538Y326837D01*
X360531Y327038D01*
X360525Y327256D01*
Y327262D01*
Y327269D01*
Y327288D01*
Y327312D01*
Y327375D01*
X360531Y327456D01*
X360538Y327556D01*
X360544Y327675D01*
X360556Y327800D01*
X360569Y327938D01*
X360588Y328081D01*
X360613Y328231D01*
X360675Y328525D01*
X360713Y328669D01*
X360763Y328806D01*
X360812Y328931D01*
X360875Y329044D01*
X360881Y329050D01*
X360894Y329069D01*
X360912Y329094D01*
X360944Y329131D01*
X360981Y329175D01*
X361025Y329225D01*
X361081Y329275D01*
X361144Y329331D01*
X361219Y329381D01*
X361300Y329431D01*
X361387Y329481D01*
X361488Y329525D01*
X361594Y329562D01*
X361713Y329588D01*
X361838Y329606D01*
X361969Y329612D01*
X362000D01*
X362037Y329606D01*
D02*
G37*
G36*
X358644D02*
X358700D01*
X358756Y329594D01*
X358831Y329581D01*
X358906Y329562D01*
X358994Y329538D01*
X359081Y329506D01*
X359169Y329469D01*
X359262Y329419D01*
X359350Y329363D01*
X359437Y329300D01*
X359519Y329219D01*
X359600Y329131D01*
X359669Y329025D01*
X359675Y329019D01*
X359681Y329000D01*
X359700Y328962D01*
X359725Y328912D01*
X359750Y328850D01*
X359781Y328775D01*
X359812Y328688D01*
X359844Y328581D01*
X359875Y328469D01*
X359906Y328338D01*
X359938Y328187D01*
X359963Y328031D01*
X359987Y327856D01*
X360006Y327669D01*
X360013Y327469D01*
X360019Y327256D01*
Y327250D01*
Y327244D01*
Y327225D01*
Y327206D01*
Y327144D01*
X360013Y327056D01*
X360006Y326956D01*
X360000Y326844D01*
X359987Y326719D01*
X359975Y326581D01*
X359956Y326437D01*
X359931Y326288D01*
X359906Y326137D01*
X359869Y325994D01*
X359825Y325850D01*
X359781Y325712D01*
X359725Y325588D01*
X359663Y325475D01*
X359656Y325469D01*
X359644Y325450D01*
X359625Y325425D01*
X359594Y325388D01*
X359556Y325344D01*
X359512Y325294D01*
X359456Y325244D01*
X359394Y325194D01*
X359319Y325137D01*
X359244Y325087D01*
X359150Y325038D01*
X359056Y324994D01*
X358950Y324956D01*
X358831Y324931D01*
X358706Y324913D01*
X358575Y324906D01*
X358544D01*
X358506Y324913D01*
X358450D01*
X358387Y324925D01*
X358319Y324938D01*
X358244Y324956D01*
X358156Y324981D01*
X358069Y325006D01*
X357975Y325044D01*
X357888Y325094D01*
X357794Y325150D01*
X357706Y325213D01*
X357625Y325294D01*
X357544Y325381D01*
X357475Y325481D01*
X357469Y325487D01*
X357463Y325506D01*
X357444Y325544D01*
X357419Y325594D01*
X357394Y325650D01*
X357369Y325731D01*
X357337Y325819D01*
X357306Y325919D01*
X357269Y326038D01*
X357238Y326169D01*
X357212Y326319D01*
X357188Y326475D01*
X357162Y326650D01*
X357144Y326837D01*
X357137Y327038D01*
X357131Y327256D01*
Y327262D01*
Y327269D01*
Y327288D01*
Y327312D01*
Y327375D01*
X357137Y327456D01*
X357144Y327556D01*
X357150Y327675D01*
X357162Y327800D01*
X357175Y327938D01*
X357194Y328081D01*
X357219Y328231D01*
X357281Y328525D01*
X357319Y328669D01*
X357369Y328806D01*
X357419Y328931D01*
X357481Y329044D01*
X357488Y329050D01*
X357500Y329069D01*
X357519Y329094D01*
X357550Y329131D01*
X357588Y329175D01*
X357631Y329225D01*
X357687Y329275D01*
X357750Y329331D01*
X357825Y329381D01*
X357906Y329431D01*
X357994Y329481D01*
X358094Y329525D01*
X358200Y329562D01*
X358319Y329588D01*
X358444Y329606D01*
X358575Y329612D01*
X358606D01*
X358644Y329606D01*
D02*
G37*
G36*
X349969Y328475D02*
X350031Y328469D01*
X350094Y328456D01*
X350169Y328444D01*
X350250Y328425D01*
X350338Y328400D01*
X350425Y328369D01*
X350519Y328331D01*
X350612Y328281D01*
X350700Y328231D01*
X350794Y328169D01*
X350875Y328094D01*
X350956Y328012D01*
X350962Y328006D01*
X350975Y327994D01*
X350994Y327962D01*
X351019Y327925D01*
X351050Y327875D01*
X351087Y327819D01*
X351125Y327750D01*
X351163Y327669D01*
X351200Y327581D01*
X351238Y327481D01*
X351275Y327375D01*
X351306Y327256D01*
X351331Y327125D01*
X351350Y326988D01*
X351362Y326844D01*
X351369Y326688D01*
Y326675D01*
Y326650D01*
Y326606D01*
X351362Y326544D01*
X351356Y326475D01*
X351350Y326394D01*
X351338Y326300D01*
X351319Y326200D01*
X351269Y325988D01*
X351238Y325881D01*
X351194Y325769D01*
X351150Y325662D01*
X351094Y325556D01*
X351031Y325463D01*
X350956Y325369D01*
X350950Y325362D01*
X350938Y325350D01*
X350912Y325325D01*
X350881Y325294D01*
X350837Y325262D01*
X350787Y325225D01*
X350731Y325181D01*
X350662Y325137D01*
X350588Y325094D01*
X350506Y325050D01*
X350419Y325012D01*
X350319Y324981D01*
X350213Y324950D01*
X350100Y324925D01*
X349981Y324913D01*
X349856Y324906D01*
X349825D01*
X349787Y324913D01*
X349738D01*
X349681Y324919D01*
X349612Y324931D01*
X349537Y324944D01*
X349450Y324969D01*
X349362Y324994D01*
X349275Y325025D01*
X349181Y325062D01*
X349088Y325106D01*
X349000Y325163D01*
X348906Y325225D01*
X348825Y325300D01*
X348744Y325381D01*
X348738Y325388D01*
X348725Y325406D01*
X348706Y325431D01*
X348681Y325469D01*
X348650Y325519D01*
X348619Y325575D01*
X348581Y325644D01*
X348544Y325725D01*
X348506Y325813D01*
X348469Y325912D01*
X348438Y326019D01*
X348406Y326137D01*
X348381Y326262D01*
X348362Y326394D01*
X348350Y326537D01*
X348344Y326688D01*
Y326700D01*
Y326725D01*
Y326769D01*
X348350Y326825D01*
X348356Y326900D01*
X348369Y326981D01*
X348381Y327075D01*
X348394Y327169D01*
X348444Y327381D01*
X348475Y327494D01*
X348519Y327600D01*
X348563Y327712D01*
X348619Y327813D01*
X348681Y327912D01*
X348756Y328006D01*
X348762Y328012D01*
X348775Y328025D01*
X348800Y328050D01*
X348831Y328081D01*
X348875Y328119D01*
X348925Y328156D01*
X348981Y328200D01*
X349050Y328244D01*
X349125Y328288D01*
X349206Y328331D01*
X349300Y328369D01*
X349400Y328406D01*
X349500Y328437D01*
X349612Y328463D01*
X349731Y328475D01*
X349856Y328481D01*
X349925D01*
X349969Y328475D01*
D02*
G37*
G36*
X346950Y348875D02*
X347150Y348825D01*
X347375Y348750D01*
X347600Y348650D01*
X347850Y348525D01*
X348100Y348325D01*
X348125Y348300D01*
X348175Y348250D01*
X348250Y348175D01*
X348325Y348100D01*
X348350Y348075D01*
X348375Y348025D01*
X348500Y347850D01*
X356875Y333325D01*
X356900Y333300D01*
X356950Y333200D01*
X357000Y333050D01*
X357075Y332850D01*
X357125Y332625D01*
X357150Y332375D01*
X357175Y332075D01*
X357125Y331775D01*
Y331750D01*
X357100Y331700D01*
X357075Y331600D01*
X357025Y331475D01*
Y331450D01*
X357000Y331400D01*
X356975Y331300D01*
X356900Y331175D01*
X356875Y331150D01*
X356825Y331050D01*
X356725Y330925D01*
X356600Y330775D01*
X356425Y330625D01*
X356225Y330450D01*
X355975Y330325D01*
X355700Y330200D01*
X355675D01*
X355575Y330175D01*
X355475Y330150D01*
X355400Y330125D01*
X355325D01*
X355200Y330100D01*
X338150D01*
X338000Y330125D01*
X337800Y330175D01*
X337550Y330225D01*
X337300Y330325D01*
X337050Y330475D01*
X336800Y330675D01*
X336775Y330700D01*
X336725Y330750D01*
X336600Y330900D01*
X336575Y330925D01*
X336525Y330975D01*
X336475Y331075D01*
X336425Y331175D01*
X336400D01*
X336375Y331200D01*
X336350Y331300D01*
X336275Y331450D01*
X336225Y331625D01*
X336175Y331850D01*
X336125Y332100D01*
Y332375D01*
X336175Y332675D01*
Y332700D01*
X336200Y332800D01*
X336225Y332900D01*
X336250Y332975D01*
Y333000D01*
X336275Y333050D01*
X336325Y333125D01*
X336375Y333250D01*
X336400Y333275D01*
Y333300D01*
X344775Y347800D01*
Y347825D01*
X344825Y347875D01*
X344875Y347950D01*
X344950Y348050D01*
X345150Y348275D01*
X345425Y348500D01*
X345400D01*
X345450Y348525D01*
X345500Y348575D01*
X345575Y348625D01*
X345600Y348650D01*
X345675Y348675D01*
X345775Y348725D01*
X345900Y348775D01*
X346050Y348825D01*
X346250Y348850D01*
X346450Y348900D01*
X346800D01*
X346950Y348875D01*
D02*
G37*
%LPC*%
G36*
X341050Y327938D02*
X341006D01*
X340963Y327931D01*
X340900Y327925D01*
X340825Y327912D01*
X340750Y327888D01*
X340663Y327863D01*
X340575Y327825D01*
X340563Y327819D01*
X340538Y327806D01*
X340494Y327781D01*
X340438Y327750D01*
X340375Y327712D01*
X340300Y327662D01*
X340225Y327612D01*
X340150Y327550D01*
Y325631D01*
X340162Y325625D01*
X340188Y325612D01*
X340231Y325594D01*
X340281Y325569D01*
X340344Y325544D01*
X340406Y325519D01*
X340469Y325500D01*
X340531Y325481D01*
X340538D01*
X340563Y325475D01*
X340594Y325469D01*
X340637Y325463D01*
X340694Y325456D01*
X340756Y325450D01*
X340825Y325444D01*
X340944D01*
X340975Y325450D01*
X341013Y325456D01*
X341056Y325463D01*
X341150Y325481D01*
X341263Y325519D01*
X341375Y325581D01*
X341431Y325612D01*
X341488Y325656D01*
X341537Y325706D01*
X341587Y325763D01*
Y325769D01*
X341600Y325775D01*
X341613Y325794D01*
X341625Y325825D01*
X341644Y325856D01*
X341669Y325900D01*
X341687Y325950D01*
X341712Y326006D01*
X341738Y326069D01*
X341756Y326137D01*
X341781Y326213D01*
X341800Y326300D01*
X341812Y326394D01*
X341825Y326494D01*
X341838Y326600D01*
Y326712D01*
Y326719D01*
Y326737D01*
Y326769D01*
Y326806D01*
X341831Y326856D01*
X341825Y326912D01*
X341812Y327044D01*
X341794Y327187D01*
X341756Y327338D01*
X341712Y327481D01*
X341650Y327612D01*
Y327619D01*
X341644Y327625D01*
X341613Y327662D01*
X341569Y327712D01*
X341506Y327775D01*
X341419Y327837D01*
X341319Y327888D01*
X341194Y327925D01*
X341125Y327931D01*
X341050Y327938D01*
D02*
G37*
G36*
X361969Y329113D02*
X361925D01*
X361881Y329106D01*
X361819Y329100D01*
X361756Y329081D01*
X361681Y329063D01*
X361613Y329031D01*
X361550Y328988D01*
X361544Y328981D01*
X361525Y328962D01*
X361494Y328938D01*
X361462Y328900D01*
X361419Y328850D01*
X361381Y328787D01*
X361337Y328713D01*
X361300Y328631D01*
X361294Y328619D01*
X361287Y328588D01*
X361269Y328538D01*
X361250Y328469D01*
X361231Y328387D01*
X361206Y328288D01*
X361188Y328169D01*
X361175Y328044D01*
Y328038D01*
Y328025D01*
Y328006D01*
X361169Y327981D01*
Y327950D01*
X361162Y327912D01*
Y327813D01*
X361156Y327700D01*
X361150Y327562D01*
X361144Y327419D01*
Y327256D01*
Y327250D01*
Y327238D01*
Y327213D01*
Y327175D01*
Y327137D01*
Y327087D01*
X361150Y326981D01*
Y326856D01*
X361156Y326719D01*
X361162Y326588D01*
X361169Y326463D01*
Y326456D01*
Y326450D01*
X361175Y326431D01*
Y326406D01*
X361181Y326350D01*
X361194Y326269D01*
X361212Y326181D01*
X361238Y326087D01*
X361294Y325887D01*
X361300Y325875D01*
X361313Y325850D01*
X361331Y325806D01*
X361356Y325756D01*
X361394Y325700D01*
X361438Y325638D01*
X361488Y325581D01*
X361544Y325531D01*
X361550Y325525D01*
X361575Y325513D01*
X361606Y325494D01*
X361656Y325469D01*
X361719Y325444D01*
X361794Y325425D01*
X361875Y325413D01*
X361969Y325406D01*
X362013D01*
X362056Y325413D01*
X362112Y325419D01*
X362175Y325437D01*
X362244Y325456D01*
X362313Y325487D01*
X362375Y325525D01*
X362381Y325531D01*
X362400Y325550D01*
X362431Y325575D01*
X362469Y325612D01*
X362506Y325662D01*
X362550Y325725D01*
X362594Y325800D01*
X362631Y325881D01*
X362637Y325894D01*
X362644Y325925D01*
X362663Y325969D01*
X362681Y326038D01*
X362700Y326119D01*
X362719Y326219D01*
X362737Y326325D01*
X362756Y326450D01*
Y326456D01*
Y326469D01*
X362762Y326487D01*
Y326513D01*
Y326544D01*
X362769Y326581D01*
X362775Y326681D01*
X362781Y326800D01*
X362788Y326938D01*
X362794Y327087D01*
Y327256D01*
Y327262D01*
Y327275D01*
Y327300D01*
Y327338D01*
Y327375D01*
Y327425D01*
X362788Y327531D01*
Y327662D01*
X362781Y327800D01*
X362769Y327938D01*
X362756Y328069D01*
Y328075D01*
Y328081D01*
X362750Y328100D01*
Y328125D01*
X362737Y328187D01*
X362725Y328269D01*
X362706Y328356D01*
X362687Y328456D01*
X362656Y328550D01*
X362625Y328638D01*
X362619Y328650D01*
X362606Y328675D01*
X362587Y328719D01*
X362562Y328769D01*
X362525Y328825D01*
X362481Y328881D01*
X362431Y328938D01*
X362375Y328988D01*
X362369Y328994D01*
X362350Y329006D01*
X362313Y329025D01*
X362269Y329050D01*
X362206Y329075D01*
X362138Y329094D01*
X362056Y329106D01*
X361969Y329113D01*
D02*
G37*
G36*
X358575D02*
X358531D01*
X358488Y329106D01*
X358425Y329100D01*
X358363Y329081D01*
X358288Y329063D01*
X358219Y329031D01*
X358156Y328988D01*
X358150Y328981D01*
X358131Y328962D01*
X358100Y328938D01*
X358069Y328900D01*
X358025Y328850D01*
X357987Y328787D01*
X357944Y328713D01*
X357906Y328631D01*
X357900Y328619D01*
X357894Y328588D01*
X357875Y328538D01*
X357856Y328469D01*
X357838Y328387D01*
X357812Y328288D01*
X357794Y328169D01*
X357781Y328044D01*
Y328038D01*
Y328025D01*
Y328006D01*
X357775Y327981D01*
Y327950D01*
X357769Y327912D01*
Y327813D01*
X357763Y327700D01*
X357756Y327562D01*
X357750Y327419D01*
Y327256D01*
Y327250D01*
Y327238D01*
Y327213D01*
Y327175D01*
Y327137D01*
Y327087D01*
X357756Y326981D01*
Y326856D01*
X357763Y326719D01*
X357769Y326588D01*
X357775Y326463D01*
Y326456D01*
Y326450D01*
X357781Y326431D01*
Y326406D01*
X357787Y326350D01*
X357800Y326269D01*
X357819Y326181D01*
X357844Y326087D01*
X357900Y325887D01*
X357906Y325875D01*
X357919Y325850D01*
X357938Y325806D01*
X357962Y325756D01*
X358000Y325700D01*
X358044Y325638D01*
X358094Y325581D01*
X358150Y325531D01*
X358156Y325525D01*
X358181Y325513D01*
X358212Y325494D01*
X358262Y325469D01*
X358325Y325444D01*
X358400Y325425D01*
X358481Y325413D01*
X358575Y325406D01*
X358619D01*
X358663Y325413D01*
X358719Y325419D01*
X358781Y325437D01*
X358850Y325456D01*
X358919Y325487D01*
X358981Y325525D01*
X358987Y325531D01*
X359006Y325550D01*
X359037Y325575D01*
X359075Y325612D01*
X359113Y325662D01*
X359156Y325725D01*
X359200Y325800D01*
X359238Y325881D01*
X359244Y325894D01*
X359250Y325925D01*
X359269Y325969D01*
X359288Y326038D01*
X359306Y326119D01*
X359325Y326219D01*
X359344Y326325D01*
X359363Y326450D01*
Y326456D01*
Y326469D01*
X359369Y326487D01*
Y326513D01*
Y326544D01*
X359375Y326581D01*
X359381Y326681D01*
X359387Y326800D01*
X359394Y326938D01*
X359400Y327087D01*
Y327256D01*
Y327262D01*
Y327275D01*
Y327300D01*
Y327338D01*
Y327375D01*
Y327425D01*
X359394Y327531D01*
Y327662D01*
X359387Y327800D01*
X359375Y327938D01*
X359363Y328069D01*
Y328075D01*
Y328081D01*
X359356Y328100D01*
Y328125D01*
X359344Y328187D01*
X359331Y328269D01*
X359313Y328356D01*
X359294Y328456D01*
X359262Y328550D01*
X359231Y328638D01*
X359225Y328650D01*
X359212Y328675D01*
X359194Y328719D01*
X359169Y328769D01*
X359131Y328825D01*
X359087Y328881D01*
X359037Y328938D01*
X358981Y328988D01*
X358975Y328994D01*
X358956Y329006D01*
X358919Y329025D01*
X358875Y329050D01*
X358812Y329075D01*
X358744Y329094D01*
X358663Y329106D01*
X358575Y329113D01*
D02*
G37*
G36*
X349856Y327981D02*
X349813D01*
X349781Y327975D01*
X349744Y327969D01*
X349706Y327962D01*
X349606Y327944D01*
X349494Y327906D01*
X349381Y327850D01*
X349325Y327813D01*
X349269Y327769D01*
X349219Y327719D01*
X349169Y327662D01*
Y327656D01*
X349156Y327650D01*
X349150Y327631D01*
X349131Y327600D01*
X349113Y327569D01*
X349094Y327525D01*
X349075Y327475D01*
X349050Y327419D01*
X349025Y327356D01*
X349006Y327288D01*
X348988Y327206D01*
X348969Y327119D01*
X348956Y327019D01*
X348944Y326919D01*
X348931Y326806D01*
Y326688D01*
Y326681D01*
Y326662D01*
Y326625D01*
X348938Y326581D01*
Y326531D01*
X348944Y326469D01*
X348950Y326406D01*
X348962Y326331D01*
X348988Y326175D01*
X349031Y326019D01*
X349088Y325869D01*
X349125Y325794D01*
X349169Y325731D01*
Y325725D01*
X349181Y325719D01*
X349213Y325681D01*
X349269Y325631D01*
X349344Y325569D01*
X349444Y325506D01*
X349563Y325456D01*
X349700Y325419D01*
X349775Y325413D01*
X349856Y325406D01*
X349900D01*
X349931Y325413D01*
X349962Y325419D01*
X350006Y325425D01*
X350106Y325444D01*
X350213Y325481D01*
X350331Y325544D01*
X350381Y325575D01*
X350437Y325619D01*
X350487Y325669D01*
X350537Y325725D01*
Y325731D01*
X350550Y325738D01*
X350563Y325756D01*
X350575Y325787D01*
X350594Y325819D01*
X350612Y325863D01*
X350638Y325906D01*
X350662Y325962D01*
X350681Y326031D01*
X350706Y326100D01*
X350725Y326181D01*
X350744Y326269D01*
X350756Y326362D01*
X350769Y326463D01*
X350781Y326569D01*
Y326688D01*
Y326694D01*
Y326719D01*
Y326750D01*
X350775Y326794D01*
Y326850D01*
X350769Y326912D01*
X350763Y326981D01*
X350750Y327056D01*
X350725Y327213D01*
X350681Y327375D01*
X350619Y327531D01*
X350581Y327600D01*
X350537Y327662D01*
Y327669D01*
X350525Y327675D01*
X350494Y327712D01*
X350437Y327763D01*
X350362Y327825D01*
X350269Y327881D01*
X350150Y327931D01*
X350012Y327969D01*
X349938Y327975D01*
X349856Y327981D01*
D02*
G37*
G36*
X346825Y347475D02*
X346600D01*
X346450Y347450D01*
X346275Y347425D01*
X346075Y347325D01*
X346050Y347300D01*
X346025Y347275D01*
X345975D01*
X345950Y347250D01*
X345850Y347175D01*
X345750Y347050D01*
X345650Y346900D01*
X345625Y346875D01*
X337675Y333100D01*
Y333075D01*
Y333050D01*
X337650Y333025D01*
X337600Y332925D01*
Y332900D01*
X337575Y332850D01*
X337550Y332800D01*
Y332750D01*
Y332725D01*
Y332675D01*
X337525Y332600D01*
Y332500D01*
X337550Y332225D01*
X337600Y332100D01*
X337675Y331950D01*
X337700Y331900D01*
X337775Y331800D01*
X337800Y331775D01*
X337900Y331675D01*
X337925D01*
X337950Y331625D01*
X338025Y331575D01*
X338125Y331525D01*
X338375Y331425D01*
X338525Y331400D01*
X338700Y331375D01*
X354800D01*
X354850Y331400D01*
X354925Y331425D01*
X354975Y331450D01*
X354950Y331425D01*
X354975D01*
X355025Y331450D01*
X355100Y331475D01*
X355200Y331550D01*
X355425Y331700D01*
X355525Y331825D01*
X355625Y331950D01*
Y331975D01*
X355650Y332000D01*
X355700Y332125D01*
X355750Y332300D01*
X355775Y332525D01*
Y332550D01*
Y332575D01*
Y332625D01*
Y332675D01*
X355750Y332775D01*
X355700Y332950D01*
X355625Y333125D01*
X355600D01*
X347650Y346900D01*
Y346925D01*
X347600Y346975D01*
X347550Y347050D01*
X347525Y347075D01*
X347500Y347125D01*
X347425Y347175D01*
X347400Y347200D01*
X347375Y347225D01*
X347300Y347275D01*
X347200Y347325D01*
X346950Y347425D01*
X346825Y347475D01*
D02*
G37*
%LPD*%
G36*
X344350Y338025D02*
X349600Y340725D01*
X346400Y334125D01*
X347550Y334400D01*
X345650Y332175D01*
X345200Y334825D01*
X346075Y334150D01*
X347325Y338925D01*
X343300Y336925D01*
X345875Y345850D01*
X347775Y345925D01*
X344350Y338025D01*
D02*
G37*
D10*
X373628Y335450D02*
X452594Y335450D01*
X373628Y335450D02*
Y341740D01*
X360238D02*
X373628D01*
X360238D02*
Y357540D01*
X358038D02*
X360238D01*
X358038D02*
Y366640D01*
X468342Y366640D01*
X468408Y357540D02*
Y366640D01*
X466209Y357540D02*
X468408D01*
X466209Y341740D02*
Y357540D01*
X452818Y341740D02*
X466209D01*
X452818Y335450D02*
Y341740D01*
X399500Y298000D02*
Y303998D01*
X403499Y298000D01*
Y303998D01*
X405498Y298000D02*
X407497D01*
X406498D01*
Y303998D01*
X405498Y302998D01*
X418500Y299000D02*
Y304998D01*
X422499Y299000D01*
Y304998D01*
X428497Y299000D02*
X424498D01*
X428497Y302999D01*
Y303998D01*
X427497Y304998D01*
X425498D01*
X424498Y303998D01*
X345122Y221500D02*
Y227498D01*
X348120D01*
X349120Y226498D01*
Y224499D01*
X348120Y223499D01*
X345122D01*
X347121D02*
X349120Y221500D01*
X355118Y227498D02*
X351120D01*
Y224499D01*
X353119Y225499D01*
X354119D01*
X355118Y224499D01*
Y222500D01*
X354119Y221500D01*
X352119D01*
X351120Y222500D01*
X420500Y223000D02*
Y228998D01*
X423499D01*
X424499Y227998D01*
Y225999D01*
X423499Y224999D01*
X420500D01*
X422499D02*
X424499Y223000D01*
X430497Y228998D02*
X428497Y227998D01*
X426498Y225999D01*
Y224000D01*
X427498Y223000D01*
X429497D01*
X430497Y224000D01*
Y224999D01*
X429497Y225999D01*
X426498D01*
X474875Y347498D02*
X472876D01*
X473876D01*
Y342500D01*
X472876Y341500D01*
X471876D01*
X470877Y342500D01*
X480873Y341500D02*
X476875D01*
X480873Y345499D01*
Y346498D01*
X479874Y347498D01*
X477874D01*
X476875Y346498D01*
D11*
X369000Y212000D02*
Y220000D01*
X393000D01*
Y212000D02*
Y220000D01*
X369000Y212000D02*
X393000D01*
X365000Y216000D02*
X369000D01*
X393000D02*
X397000D01*
X437000Y213000D02*
Y221000D01*
X461000D01*
Y213000D02*
Y221000D01*
X437000Y213000D02*
X461000D01*
X433000Y217000D02*
X437000D01*
X461000D02*
X465000D01*
M02*
