M48
;Layer_Color=9474304
;FILE_FORMAT=2:5
INCH,TZ
;TYPE=PLATED
T1F00S00C0.01181
T2F00S00C0.03346
T3F00S00C0.04331
T4F00S00C0.08268
T5F00S00C0.19685
%
T01
X400000Y288000
X403500Y310000
X441000Y278000
X430940Y325500
X423000Y325940
X415000Y328000
X411000Y329000
X391751Y324500
X387628Y321000
X399422Y315500
T02
X469000Y217000
X429000
X401000Y216000
X361000
T03
X470877Y240222
X476251Y253283
X476751Y271000
X476251Y288717
X470877Y301778
X455128Y305715
X439381Y301778
X432757Y288717
X432257Y271000
X432757Y253283
X439381Y240222
X455128Y236285
X386377Y240222
X391751Y253283
X392250Y271000
X391751Y288717
X386377Y301778
X370628Y305715
X354880Y301778
X348256Y288717
X347757Y271000
X348256Y253283
X354880Y240222
X370628Y236285
T04
X483500Y211500
X343000
Y363000
X483500
T05
X371879Y271000
X456379
M30
